<?xml version="1.0" standalone="no"?>
<!DOCTYPE svg PUBLIC "-//W3C//DTD SVG 20010904//EN"
 "http://www.w3.org/TR/2001/REC-SVG-20010904/DTD/svg10.dtd">
<svg version="1.0" xmlns="http://www.w3.org/2000/svg"
 width="250.000000pt" height="192.000000pt" viewBox="0 0 250.000000 192.000000"
 preserveAspectRatio="xMidYMid meet">
<metadata>
Created by potrace 1.10, written by Peter Selinger 2001-2011
</metadata>
<g transform="translate(0.000000,192.000000) scale(0.100000,-0.100000)"
fill="#000000" stroke="none">
<path d="M1254 1825 c-66 -14 -119 -38 -173 -79 -38 -28 -61 -33 -62 -13 0 6
-6 0 -13 -15 -6 -15 -40 -45 -74 -68 -62 -40 -92 -49 -92 -30 0 6 6 10 14 10
7 0 19 7 26 15 9 11 9 15 1 15 -27 0 -51 -22 -51 -45 0 -28 3 -27 -68 -30 -80
-4 -98 -12 -112 -45 -11 -26 -10 -39 4 -82 13 -40 14 -53 4 -59 -9 -6 -9 -9 3
-14 10 -4 14 -14 12 -29 -3 -13 -1 -26 4 -29 5 -3 6 -34 3 -69 -4 -35 -3 -66
2 -69 12 -8 19 -89 8 -89 -13 0 -32 39 -25 50 10 17 -6 52 -20 46 -15 -5 -65
29 -65 45 0 5 6 9 14 9 9 0 12 8 9 24 -3 13 0 32 6 43 9 15 11 10 10 -27 -1
-25 2 -54 7 -65 7 -16 10 -12 15 25 3 25 2 47 -2 48 -5 2 -9 11 -9 21 0 9 -4
21 -9 27 -4 5 -6 29 -3 53 3 29 7 39 13 30 16 -25 10 23 -6 55 -14 26 -14 30
2 42 23 16 14 25 -16 17 -18 -5 -21 -11 -16 -30 l6 -24 -188 3 c-183 2 -190 2
-238 -22 -57 -28 -99 -82 -89 -114 12 -40 33 -47 115 -40 52 4 79 3 83 -5 4
-6 2 -11 -3 -11 -6 0 -11 -11 -11 -26 0 -26 -63 -94 -87 -94 -7 0 -16 0 -20
-1 -20 -2 -11 22 11 32 14 7 26 16 26 22 0 11 -49 0 -67 -15 -16 -13 -17 -50
-1 -66 17 -17 34 -15 82 7 23 11 49 22 60 25 12 4 17 13 13 26 -3 11 1 27 9
35 9 8 13 26 10 42 -2 15 -5 31 -5 35 -2 14 -70 20 -115 10 -79 -17 -111 28
-61 82 30 32 83 56 125 56 27 0 30 -3 24 -24 -4 -17 1 -31 15 -45 12 -12 21
-26 21 -31 0 -5 9 -10 20 -10 12 0 30 -16 46 -42 15 -24 74 -90 131 -148 63
-62 99 -106 91 -108 -24 -8 -38 -35 -38 -78 l0 -42 -72 -12 c-96 -16 -116 -24
-130 -57 -14 -35 -13 -295 2 -323 9 -18 8 -20 -15 -20 -15 0 -25 -6 -25 -14 0
-11 8 -13 33 -9 l33 5 -4 -64 c-5 -81 13 -177 38 -202 18 -18 37 -20 266 -23
135 -1 253 1 262 6 13 7 11 11 -11 25 -36 24 -114 23 -160 -3 -36 -20 -51 -15
-23 9 8 6 20 36 27 67 13 56 34 78 50 52 6 -10 9 -10 9 -2 0 7 7 10 17 6 14
-5 15 -1 10 28 l-7 34 33 -39 c17 -22 38 -63 45 -90 16 -64 56 -124 105 -155
23 -16 33 -27 26 -32 -6 -4 37 -7 97 -8 60 -1 127 -7 149 -13 28 -7 145 -8
376 -3 362 7 546 21 319 24 -89 1 -121 4 -110 12 10 6 88 8 220 6 113 -3 184
-3 158 0 -54 5 -63 18 -19 26 43 9 101 64 127 122 28 59 32 154 9 206 -16 39
-19 29 -5 -20 8 -29 6 -36 -13 -52 -17 -14 -19 -21 -9 -27 10 -7 10 -11 -3
-22 -13 -11 -13 -15 -3 -22 10 -6 10 -10 -2 -18 -12 -8 -13 -12 -2 -19 11 -7
10 -9 -3 -15 -9 -3 -13 -10 -10 -16 3 -6 -1 -13 -9 -16 -9 -3 -14 -10 -11 -14
3 -5 -5 -12 -17 -16 -12 -3 -28 -13 -36 -20 -7 -8 -21 -14 -31 -14 -9 0 -22
-5 -28 -11 -5 -5 -35 -13 -65 -16 -79 -8 -146 25 -201 99 -31 40 -25 52 24 50
15 0 35 8 45 19 19 21 39 26 28 7 -10 -16 24 9 49 36 17 19 17 19 17 -2 0 -16
6 -22 23 -21 18 1 18 2 4 6 -11 3 -16 10 -13 20 3 8 6 17 6 19 0 3 4 3 9 0 5
-3 25 1 44 9 19 8 37 12 40 9 3 -3 3 5 0 18 l-6 23 21 -21 c13 -13 22 -39 25
-65 l4 -44 1 47 c1 26 -2 58 -8 72 -6 16 -6 26 0 26 5 0 14 -19 20 -42 17 -67
20 -67 17 1 -2 58 0 64 20 72 28 10 40 -6 19 -27 -21 -21 -20 -22 9 -16 28 5
32 23 10 45 -13 13 -11 17 11 32 23 15 24 20 18 63 -11 74 -20 91 -44 85 -19
-5 -20 -7 -5 -23 11 -12 13 -20 5 -25 -5 -3 -7 -11 -4 -17 4 -6 10 -5 15 3 7
11 9 9 10 -6 1 -11 2 -27 3 -35 3 -42 -113 -114 -337 -210 -78 -33 -119 -44
-213 -55 -66 -8 -148 -12 -188 -9 -79 6 -225 51 -233 71 -3 7 -9 11 -13 8 -5
-3 -42 3 -82 14 -112 29 -118 30 -118 20 0 -5 7 -9 15 -9 8 0 15 -4 15 -10 0
-5 14 -7 33 -3 31 6 32 6 15 -14 -21 -23 -23 -56 -5 -72 10 -8 17 -7 25 1 17
17 15 1 -4 -28 -19 -28 -70 -58 -84 -49 -11 7 -2 36 14 47 8 5 7 8 -1 8 -7 0
-16 -8 -22 -17 -9 -17 -10 -17 -16 0 -4 9 -13 17 -21 17 -8 0 -14 7 -14 15 0
16 -16 21 -22 6 -4 -13 -42 -18 -43 -6 0 6 -6 19 -12 30 -20 33 -16 -10 4 -48
9 -18 16 -35 15 -38 0 -4 16 -14 38 -24 45 -20 99 -14 141 16 14 10 28 17 30
14 5 -5 9 26 10 69 0 15 6 35 14 43 9 9 15 10 15 3 0 -6 4 -9 9 -5 5 3 26 -2
45 -12 27 -12 36 -23 37 -42 0 -26 0 -26 9 -3 11 26 13 26 43 9 12 -6 23 -13
25 -14 2 -1 -1 -11 -8 -22 -6 -12 -15 -19 -20 -16 -5 3 -23 -9 -40 -27 -34
-36 -33 -38 -13 32 2 8 -7 -6 -21 -31 -25 -46 -76 -98 -99 -100 -127 -15 -212
2 -269 52 -33 29 -60 91 -51 115 4 12 3 15 -5 10 -7 -4 -12 -2 -12 3 0 6 5 11
10 11 6 0 2 10 -9 22 -12 12 -23 35 -27 52 -10 56 40 165 100 219 32 28 -7 6
-43 -25 -17 -15 -31 -31 -31 -37 0 -6 -4 -11 -10 -11 -5 0 -10 -9 -10 -20 0
-17 -7 -20 -42 -20 -24 0 -60 -3 -82 -7 -33 -5 -38 -4 -34 12 2 15 19 22 72
32 38 6 71 15 75 19 3 4 -10 4 -29 1 -111 -20 -117 -20 -124 -1 -4 10 -9 61
-12 113 -5 87 -29 199 -40 188 -3 -3 0 -24 5 -48 6 -24 12 -82 15 -129 3 -47
7 -94 10 -105 3 -11 10 -38 15 -59 5 -21 16 -43 23 -47 18 -12 96 -11 103 1
13 21 23 9 22 -25 -1 -26 -5 -35 -18 -35 -10 0 -22 7 -27 15 -7 13 -10 12 -20
-10 -12 -26 -51 -36 -53 -12 0 6 -7 -6 -15 -28 -51 -144 -63 -162 -94 -145
-13 7 -21 7 -25 0 -4 -6 -16 -8 -28 -4 -12 4 -39 6 -59 5 -30 -1 -38 2 -38 16
0 15 -2 14 -15 -4 -17 -24 -50 -21 -41 3 6 17 -6 18 -21 3 -6 -6 -16 -8 -22
-5 -18 11 -13 26 8 26 11 0 23 4 26 10 4 6 -1 7 -11 3 -19 -7 -44 20 -43 46 0
12 3 10 9 -4 5 -11 9 -14 9 -7 1 7 -5 25 -13 40 -21 43 -27 175 -10 226 18 53
50 89 73 82 9 -4 3 5 -13 19 -23 22 -31 24 -44 13 -20 -17 -42 -70 -42 -102 0
-14 -5 -28 -10 -31 -7 -4 -9 2 -5 17 4 14 7 54 8 90 1 36 6 64 10 61 4 -2 5 7
1 21 -3 14 -3 38 2 54 l7 27 7 -30 8 -30 1 30 c1 17 5 35 9 41 10 15 109 33
120 22 5 -5 17 8 28 29 10 21 22 39 27 41 4 2 7 18 7 35 0 16 3 27 7 24 3 -4
13 -2 20 5 18 15 33 -5 33 -44 0 -15 3 -29 8 -31 4 -3 7 22 7 54 0 56 -1 59
-25 59 -18 0 -39 16 -73 54 -52 60 -55 66 -31 66 10 0 14 -6 10 -15 -3 -8 -1
-15 5 -15 6 0 31 -17 55 -38 39 -35 47 -38 81 -33 34 6 38 10 39 36 1 57 4 65
20 65 13 0 15 -7 11 -35 -5 -29 -3 -35 12 -35 24 0 47 28 43 52 -2 12 2 18 10
17 32 -6 148 35 148 53 0 4 -6 5 -13 2 -17 -6 -41 307 -25 317 6 4 2 12 -11
18 -13 8 -21 8 -21 2 0 -12 -79 -55 -86 -48 -3 3 10 14 28 26 18 11 26 21 17
21 -8 0 -20 -5 -27 -12 -7 -7 -12 -9 -12 -4 0 16 30 36 54 36 14 0 28 5 31 11
5 6 12 4 22 -8 13 -16 14 -16 9 -1 -3 11 2 19 17 24 12 4 30 18 41 31 31 40
155 115 230 138 75 24 226 33 281 16 23 -7 10 -9 -60 -9 -122 -1 -222 -24
-316 -73 -87 -46 -162 -112 -155 -138 3 -9 10 -68 16 -131 14 -162 20 -198 35
-210 8 -7 43 -5 111 5 54 8 110 14 124 14 l25 -1 -25 -8 c-15 -5 30 -7 106 -6
73 0 130 4 127 9 -2 4 22 7 54 8 34 0 51 3 40 8 -10 3 -51 3 -90 -1 -40 -4
-101 -6 -137 -6 -48 1 -29 4 70 14 175 16 280 17 280 3 0 -9 4 -9 14 0 14 12
66 11 66 -1 0 -4 7 -8 15 -8 8 0 19 -9 25 -20 6 -11 17 -17 24 -14 8 3 19 -4
26 -16 6 -11 15 -18 20 -15 6 3 15 -13 21 -37 l12 -43 75 3 c72 4 75 3 69 -17
-3 -12 -1 -21 4 -21 10 0 11 25 3 58 -7 25 -48 30 -103 11 -40 -14 -54 -3 -48
37 l4 29 7 -31 8 -31 59 15 c64 16 89 12 89 -14 0 -9 14 -33 30 -54 17 -21 30
-48 30 -60 0 -15 5 -20 18 -18 9 1 23 -1 30 -6 11 -6 10 -11 -3 -26 -8 -9 -13
-24 -9 -34 8 -21 26 -21 23 2 -3 32 1 42 16 42 18 0 20 -37 3 -42 -10 -4 -10
-11 1 -34 8 -16 16 -41 18 -56 2 -22 -1 -28 -17 -28 -11 0 -20 -5 -20 -11 0
-5 4 -8 9 -4 17 10 24 -18 8 -30 -10 -7 -17 -18 -17 -26 0 -10 3 -10 12 -1 7
7 18 12 26 12 12 0 12 -3 2 -15 -7 -8 -9 -15 -5 -15 4 0 2 -7 -5 -15 -10 -12
-9 -16 3 -21 13 -5 13 -9 -1 -37 -20 -37 -32 -48 -49 -43 -6 3 -14 -2 -17 -9
-6 -17 -85 -57 -97 -49 -5 3 -9 0 -9 -5 0 -13 -71 -50 -175 -91 -97 -39 -115
-38 -70 1 61 54 65 78 6 35 -36 -27 -66 -40 -97 -44 -40 -4 -51 0 -101 34 -40
27 -70 60 -102 110 -71 111 -74 114 -37 39 19 -38 42 -91 51 -117 9 -27 21
-48 27 -48 6 0 8 -11 6 -24 -6 -33 8 -38 106 -37 137 1 187 15 377 110 97 49
185 97 195 107 17 17 18 30 12 154 -3 74 -9 150 -13 167 -6 26 -1 44 24 88 27
47 31 64 28 110 -4 62 -16 81 -58 90 -35 8 -89 -2 -89 -17 0 -6 7 -7 16 -4 12
5 14 1 8 -17 -13 -44 -23 -54 -24 -23 0 19 -4 26 -9 20 -13 -12 -2 -66 12 -57
7 4 8 0 3 -12 -4 -10 0 -28 9 -41 12 -19 24 -24 55 -24 32 0 42 5 55 28 15 26
16 26 9 2 -8 -32 -44 -65 -54 -49 -6 8 -9 8 -12 -1 -7 -22 -48 0 -79 42 -33
46 -38 97 -13 122 14 15 14 16 -4 16 -11 0 -53 -11 -94 -25 -88 -30 -85 -30
-93 -5 -4 12 -16 30 -28 40 -22 21 -43 27 -32 10 3 -5 -3 -10 -15 -10 -12 0
-18 5 -15 10 5 9 -14 14 -51 13 -6 0 -19 23 -29 51 -10 28 -42 106 -71 174
-31 72 -47 123 -41 123 22 3 62 6 126 10 l64 4 14 -59 c15 -68 11 -86 -7 -29
-22 67 -32 71 -103 44 l-25 -10 54 -147 c30 -81 56 -149 58 -152 3 -2 20 2 40
9 36 13 62 5 36 -11 -8 -5 -11 -12 -7 -16 15 -15 29 14 22 45 -4 17 -10 29
-13 27 -4 -2 -8 22 -9 53 -2 47 -16 133 -38 237 -6 28 -53 34 -154 22 -83 -10
-86 -9 -96 55 -6 30 -15 43 -48 64 -78 50 -219 65 -343 38z m328 -75 c21 -6
42 -19 48 -30 15 -29 12 -32 -14 -14 -48 31 -281 34 -337 3 -31 -16 -18 -20
27 -7 65 19 243 16 281 -5 39 -21 40 -22 92 -161 22 -60 49 -121 58 -135 10
-14 18 -28 19 -31 0 -3 4 -13 9 -23 4 -10 6 -19 4 -21 -2 -2 -69 -7 -149 -11
-80 -3 -170 -8 -200 -9 -55 -3 -250 -30 -325 -45 -42 -8 -65 -5 -65 8 0 5 11
6 25 3 14 -2 25 0 25 5 0 10 45 27 99 38 18 4 29 10 23 14 -10 6 -15 25 -13
51 1 9 6 5 14 -10 14 -28 55 -39 69 -18 6 9 7 6 3 -9 -9 -31 9 -29 23 2 31 67
-57 126 -109 74 -17 -17 -20 -29 -15 -60 6 -38 5 -39 -22 -39 -16 0 -49 -6
-73 -13 l-44 -13 -1 73 c-1 40 -6 79 -12 86 -28 33 77 158 148 177 85 22 93
25 98 38 3 10 0 11 -14 4 -11 -5 -41 -15 -69 -21 -57 -14 -107 -48 -138 -97
-12 -18 -25 -34 -29 -34 -3 0 -9 19 -13 41 -6 37 -4 44 21 68 26 24 26 24 9 2
-23 -29 -11 -23 57 26 64 46 129 73 212 88 88 16 229 18 278 5z m265 -152 c22
-29 52 -118 40 -119 -9 0 -9 -2 1 -6 6 -2 12 -9 12 -14 0 -6 -4 -8 -10 -4 -5
3 -3 -7 5 -22 8 -15 15 -47 15 -70 0 -36 -3 -43 -20 -43 -18 0 -24 14 -19 46
0 4 -3 10 -8 13 -18 13 -41 89 -30 100 8 8 8 11 -1 11 -13 0 -36 41 -46 82 -5
20 -2 28 11 31 32 8 40 7 50 -5z m-1027 -38 c0 -12 -27 -12 -55 0 -16 7 -13 9
18 9 20 1 37 -3 37 -9z m109 -159 c8 -114 8 -167 1 -176 -6 -7 -47 -16 -96
-20 -92 -7 -113 0 -115 39 -1 17 -2 18 -6 3 -3 -10 -1 -23 5 -30 5 -8 4 -21
-5 -37 -12 -22 -13 -15 -9 73 3 79 1 97 -10 97 -15 0 -19 16 -5 22 5 2 4 34
-2 73 -7 51 -12 65 -18 50 -5 -12 -8 -14 -8 -5 0 37 14 45 80 48 l67 4 7 -39
c4 -21 8 -93 9 -161 1 -75 5 -122 11 -121 6 1 21 5 35 9 24 8 24 8 3 9 -21 1
-23 6 -23 54 0 28 -3 89 -7 134 l-6 82 37 17 c20 10 36 24 36 33 0 8 2 12 4
10 2 -2 9 -78 15 -168z m-329 65 c0 -10 -19 -16 -60 -21 -60 -7 -96 -27 -84
-47 4 -6 -1 -6 -14 1 -25 14 -32 14 -32 1 0 -17 61 -43 73 -31 6 6 16 11 22
11 5 0 2 -7 -8 -14 -16 -12 -15 -14 16 -20 19 -4 42 -4 51 0 15 6 15 3 5 -20
-14 -30 -17 -31 -44 -13 -42 28 -95 58 -95 54 0 -2 22 -19 50 -38 54 -37 61
-49 30 -49 -27 0 -115 89 -117 119 -1 13 -12 33 -25 45 l-23 21 90 6 c165 10
165 10 165 -5z m-265 -24 c0 -11 4 -24 8 -28 17 -17 5 -25 -13 -9 -11 10 -17
21 -15 26 3 4 1 10 -5 14 -16 10 -11 23 8 21 10 -2 17 -12 17 -24z m265 -24
c-1 -39 -13 -58 -39 -58 -24 0 -27 4 -28 35 -1 33 1 35 33 35 21 0 34 -5 34
-12z m-79 -216 c-9 -3 -82 71 -122 123 -12 17 12 -4 55 -45 42 -41 72 -76 67
-78z m46 70 c8 -5 8 -13 -1 -31 -9 -15 -16 -20 -20 -12 -4 6 -1 11 6 11 9 1 7
5 -4 14 -25 18 -8 35 19 18z m1707 -12 c14 -5 26 -17 26 -25 0 -15 -1 -15 -16
-1 -8 9 -24 16 -35 16 -11 0 -17 5 -14 10 8 12 8 12 39 0z m-4 -55 c7 -8 10
-24 7 -35 -3 -11 -1 -23 4 -26 14 -8 -10 -34 -31 -34 -25 0 -50 10 -50 21 0 5
7 9 15 9 8 0 15 5 15 11 0 5 5 7 10 4 6 -3 10 5 10 19 0 14 -8 30 -17 35 -16
9 -16 10 3 11 12 0 27 -7 34 -15z m-1635 -30 c17 -13 25 -24 18 -25 -7 0 -25
11 -40 25 -36 32 -17 32 22 0z m1022 -697 c-16 -9 -47 -1 -47 12 0 5 -3 16 -6
25 -5 13 1 12 31 -6 29 -18 34 -24 22 -31z m251 -188 c18 -41 69 -90 110 -107
19 -8 32 -16 30 -18 -7 -7 -276 14 -363 29 -49 9 -130 15 -180 15 l-90 -1 50
-14 c28 -7 70 -14 95 -14 25 0 51 -4 59 -9 12 -8 -15 -12 -179 -27 -30 -2 -77
-7 -105 -10 l-50 -5 43 22 c24 12 57 39 74 60 28 35 36 39 77 39 39 0 50 5 71
30 24 30 27 31 85 25 33 -2 87 -1 120 4 33 5 78 9 100 10 36 1 42 -2 53 -29z
m-768 -5 c17 -9 30 -22 30 -30 0 -11 -7 -10 -35 6 -19 12 -35 25 -35 30 0 12
6 11 40 -6z"/>
<path d="M1062 1465 c0 -22 4 -53 8 -70 7 -26 8 -23 8 20 0 28 -3 59 -8 70 -7
15 -8 11 -8 -20z"/>
<path d="M1425 1435 c-14 -13 -25 -33 -25 -45 0 -22 41 -70 61 -70 6 0 0 9
-15 21 -26 20 -37 69 -15 69 5 0 7 -5 4 -10 -10 -16 14 -40 40 -40 13 0 26 6
29 13 3 6 3 2 0 -10 -8 -32 14 -29 26 3 17 44 -21 93 -73 94 -4 0 -19 -11 -32
-25z"/>
<path d="M1619 1376 c-46 -13 -93 -35 -74 -36 6 0 37 7 70 15 74 18 78 18 70
3 -4 -7 -1 -6 7 3 7 9 20 18 28 22 29 11 -56 5 -101 -7z"/>
<path d="M801 1423 c1 -21 5 -65 9 -98 7 -56 8 -53 8 38 0 53 -4 97 -9 97 -5
0 -9 -17 -8 -37z"/>
<path d="M727 1308 c12 -63 19 -82 32 -86 10 -3 10 0 0 17 -11 16 -11 23 -2
32 10 10 8 19 -5 41 -22 37 -33 36 -25 -4z"/>
<path d="M977 1455 c3 -49 7 -92 9 -94 7 -7 3 82 -6 134 -6 37 -7 26 -3 -40z"/>
<path d="M1945 1413 c5 -10 10 -33 13 -50 4 -35 9 -38 30 -24 11 7 9 17 -12
50 -27 42 -44 56 -31 24z"/>
<path d="M991 1314 c1 -21 5 -52 9 -69 5 -19 6 -6 3 35 -6 73 -14 94 -12 34z"/>
<path d="M1599 1254 c-119 -18 -183 -43 -187 -73 -3 -21 -2 -22 20 -10 13 6
25 15 28 18 12 15 60 30 60 20 0 -7 6 -6 17 2 9 8 25 13 36 11 10 -2 17 0 14
5 -3 5 3 9 13 9 10 0 16 -4 14 -8 -3 -4 -1 -8 5 -8 5 0 15 8 20 18 9 15 12 15
22 2 7 -11 12 -12 15 -3 4 9 13 9 30 2 21 -7 25 -6 22 7 -4 22 -27 24 -129 8z"/>
<path d="M1740 1257 c0 -10 13 -16 40 -19 32 -3 40 0 38 12 -4 21 -78 27 -78
7z"/>
<path d="M1208 1243 c20 -3 32 -10 32 -19 0 -17 22 -14 27 3 4 12 -31 23 -67
21 -19 -1 -17 -2 8 -5z"/>
<path d="M1327 1228 c-2 -7 11 -20 29 -29 28 -14 34 -14 34 -2 0 7 7 16 16 20
12 5 13 7 3 14 -8 5 -17 3 -21 -4 -6 -9 -12 -9 -28 1 -11 6 -22 12 -24 12 -2
0 -6 -6 -9 -12z"/>
<path d="M1082 1195 c-15 -12 -34 -25 -42 -28 -10 -4 -8 -6 7 -6 25 -1 73 18
73 29 0 4 8 7 18 7 32 0 42 3 42 12 0 19 -71 9 -98 -14z"/>
<path d="M1625 1183 c-60 -8 -135 -22 -165 -31 -47 -15 -55 -21 -57 -43 -1
-22 2 -26 18 -22 10 3 19 10 19 15 0 5 -4 6 -10 3 -5 -3 -10 -3 -10 0 0 10 70
36 80 30 18 -11 10 -25 -14 -25 -14 0 -28 -5 -32 -12 -5 -8 0 -9 17 -5 13 4
119 14 234 23 116 10 214 21 220 26 13 12 -42 10 -190 -7 -149 -17 -227 -19
-206 -6 7 5 32 9 55 10 49 1 67 4 81 13 20 12 83 20 89 10 6 -10 83 12 101 29
13 13 -99 9 -230 -8z"/>
<path d="M1200 1181 c-8 -6 -17 -8 -20 -6 -8 5 -4 -87 6 -110 4 -11 15 -25 23
-32 14 -11 14 -12 -3 -13 -12 0 -16 -5 -12 -16 3 -9 6 -19 6 -22 0 -4 4 -1 9
7 8 12 14 12 40 1 17 -7 31 -16 31 -20 0 -19 36 -2 77 37 26 24 50 43 55 43 4
0 8 5 8 10 0 20 -27 9 -48 -20 -25 -33 -80 -49 -116 -32 -45 20 -75 139 -44
170 14 14 9 15 -12 3z"/>
<path d="M1224 1165 c-27 -41 0 -135 39 -135 6 0 3 6 -6 13 -65 49 -19 146 56
118 52 -20 48 -103 -6 -126 -25 -11 -27 -14 -11 -15 23 0 98 76 83 86 -5 3 -9
10 -9 15 0 6 5 7 10 4 6 -3 10 3 10 14 0 31 -38 51 -97 51 -45 0 -55 -4 -69
-25z"/>
<path d="M1006 1121 c-16 -16 -25 -34 -21 -40 8 -15 25 -4 25 16 0 9 8 22 17
29 10 7 15 15 12 18 -3 3 -18 -7 -33 -23z"/>
<path d="M1064 1103 c-3 -16 -8 -34 -10 -41 -2 -8 1 -12 8 -10 6 2 13 21 14
41 4 43 -3 49 -12 10z"/>
<path d="M1256 1112 c-2 -4 -1 -14 4 -22 7 -11 12 -12 21 -3 6 6 8 16 5 22 -8
13 -23 14 -30 3z"/>
<path d="M1799 1103 c26 -3 31 -7 20 -14 -12 -7 -11 -9 2 -9 9 0 22 7 29 15
11 13 6 15 -36 13 -40 -1 -43 -2 -15 -5z"/>
<path d="M740 1085 c-7 -8 -16 -12 -21 -9 -5 3 -9 -19 -9 -48 0 -30 -4 -58
-10 -64 -6 -6 -6 -15 0 -24 8 -12 10 -10 10 9 0 13 15 38 35 58 19 19 35 39
35 45 0 5 4 7 9 4 4 -3 13 6 19 20 11 23 11 24 -10 13 -16 -9 -23 -9 -26 0 -5
15 -17 14 -32 -4z"/>
<path d="M1697 1089 c14 -14 83 -23 83 -11 0 4 -10 9 -22 9 -13 1 -34 5 -48 8
-20 5 -23 4 -13 -6z"/>
<path d="M1527 1083 c-12 -12 -7 -31 9 -37 12 -5 15 -2 10 11 -4 9 -1 20 6 25
10 6 9 8 -3 8 -9 0 -19 -3 -22 -7z"/>
<path d="M2075 1080 c-16 -4 -24 -8 -17 -9 7 0 11 -4 9 -8 -3 -5 10 -8 29 -9
22 0 34 4 34 12 0 8 -6 11 -17 7 -11 -4 -14 -3 -9 5 4 7 6 11 4 11 -2 -1 -16
-5 -33 -9z"/>
<path d="M1595 1070 c3 -5 -3 -10 -14 -10 -12 0 -21 -5 -21 -11 0 -6 9 -8 20
-4 13 4 20 2 20 -7 0 -9 3 -9 8 -2 4 6 16 10 26 8 33 -5 39 7 11 22 -32 16
-59 18 -50 4z"/>
<path d="M1950 1072 c-6 -2 -8 -7 -5 -12 5 -8 62 3 73 14 5 6 -50 3 -68 -2z"/>
<path d="M1420 1031 c-15 -4 20 -30 43 -31 9 0 17 5 17 10 0 6 7 10 15 10 8 0
15 4 15 10 0 9 -64 10 -90 1z"/>
<path d="M816 963 c-4 -9 -4 -18 -1 -21 3 -3 5 0 5 6 0 7 5 12 10 12 6 0 10
-6 10 -13 0 -8 6 -14 14 -14 11 0 12 4 3 18 -16 26 -34 31 -41 12z"/>
<path d="M1465 914 c-13 -21 -19 -24 -26 -13 -6 9 -8 4 -6 -16 1 -16 5 -32 8
-35 3 -3 25 -41 49 -85 56 -104 110 -185 124 -186 6 -1 27 -2 46 -3 32 -1 35
-4 38 -35 l3 -33 48 4 c43 4 108 35 97 46 -3 2 -17 -3 -30 -12 -14 -9 -43 -16
-66 -16 -33 0 -40 3 -40 20 0 17 7 20 58 22 31 1 65 2 76 2 12 1 29 23 51 66
24 47 34 59 37 45 3 -19 4 -19 23 3 11 12 25 22 31 22 15 0 24 23 24 61 0 17
7 44 16 61 9 17 14 41 11 54 -2 13 1 25 7 27 6 2 7 8 3 13 -12 13 -27 -16 -27
-53 0 -17 -5 -35 -10 -38 -6 -4 -44 10 -85 30 -91 45 -166 55 -247 31 -31 -9
-66 -16 -78 -16 -11 0 -19 -4 -16 -9 9 -14 -80 -24 -104 -11 -25 14 -19 25 25
46 19 9 32 20 29 25 -3 5 -12 2 -20 -6 -9 -8 -20 -15 -27 -15 -6 0 -2 7 9 15
16 12 16 14 3 15 -9 0 -24 -12 -34 -26z m365 -53 c5 -11 10 -42 10 -70 0 -50
0 -50 -37 -60 -82 -21 -97 -19 -114 19 -10 19 -20 52 -23 72 -7 37 -6 37 36
46 74 17 116 14 128 -7z m-186 -23 c3 -13 6 -26 6 -29 0 -12 -57 -30 -96 -32
-37 -2 -39 0 -39 27 0 32 24 50 26 19 1 -16 2 -16 6 0 7 25 33 21 34 -5 1 -21
2 -21 6 -3 5 19 30 45 44 45 4 0 9 -10 13 -22z m278 -7 c30 -15 61 -30 68 -33
9 -3 10 -14 5 -36 -7 -33 -8 -33 -58 -30 -44 3 -51 6 -57 28 -12 44 -21 100
-16 100 2 0 28 -13 58 -29z m-252 -116 c21 -21 44 -35 58 -35 29 0 103 20 116
31 15 13 36 -2 36 -26 0 -12 -7 -28 -15 -35 -8 -7 -12 -16 -10 -21 12 -18 -37
-28 -140 -28 -113 0 -126 4 -54 18 l44 9 -48 1 c-52 1 -65 10 -91 58 -26 52
-22 63 27 63 36 0 49 -6 77 -35z"/>
<path d="M803 908 c-1 -13 3 -18 12 -14 7 2 19 -2 26 -10 6 -8 14 -12 17 -10
6 6 -30 50 -44 53 -5 1 -11 -7 -11 -19z"/>
<path d="M1094 868 c3 -10 9 -26 13 -35 6 -16 5 -17 -12 -3 -17 14 -18 14 -5
-10 8 -15 15 -20 18 -12 2 6 8 10 13 6 15 -9 10 10 -12 41 -12 17 -18 22 -15
13z"/>
<path d="M2067 856 c-4 -10 0 -12 15 -8 16 4 19 2 13 -8 -5 -9 -4 -11 3 -6 7
4 12 14 12 22 0 18 -36 18 -43 0z"/>
<path d="M983 825 c-11 -8 -28 -36 -37 -62 -18 -53 -22 -178 -5 -168 6 4 8 14
4 23 -3 8 0 19 7 24 10 6 10 10 -2 18 -10 6 -11 10 -3 10 7 0 10 7 7 15 -8 21
35 125 51 125 31 0 49 -16 71 -63 12 -28 21 -54 18 -59 -3 -4 1 -8 10 -8 8 0
17 -6 19 -12 3 -8 6 -6 6 5 1 24 -45 114 -74 143 -28 28 -42 30 -72 9z"/>
<path d="M1409 814 c0 -5 -2 -19 -5 -31 -2 -12 1 -25 6 -28 6 -4 7 -11 4 -17
-4 -7 -2 -8 4 -4 12 7 11 71 -1 82 -4 4 -7 3 -8 -2z"/>
<path d="M1260 779 c0 -7 -12 -8 -32 -4 -33 6 -33 6 -8 -8 26 -14 66 -5 55 14
-8 12 -15 12 -15 -2z"/>
<path d="M489 728 c16 -18 34 -56 47 -105 17 -65 24 -77 43 -78 12 -1 24 2 27
7 3 4 -2 8 -10 8 -12 0 -16 10 -16 34 0 19 -4 37 -10 41 -5 3 -6 13 -3 22 4
10 2 14 -4 10 -7 -5 -9 0 -6 13 4 14 -1 22 -20 29 -14 5 -28 15 -32 21 -6 9
-2 9 14 1 17 -10 20 -9 15 4 -4 8 -9 15 -13 16 -3 0 -18 2 -32 3 l-26 2 26
-28z"/>
<path d="M2290 649 c-19 -35 -6 -40 23 -9 27 28 27 30 8 30 -11 0 -25 -9 -31
-21z"/>
<path d="M1181 619 c6 -13 6 -19 -1 -19 -13 0 -13 -31 1 -50 9 -12 10 -11 6 7
-3 13 -1 25 3 28 13 8 114 -21 118 -34 2 -6 8 -8 13 -5 6 3 16 0 24 -6 8 -7
15 -9 15 -5 0 5 9 0 19 -9 11 -10 24 -15 29 -12 5 3 21 -5 35 -18 21 -19 27
-21 31 -9 3 8 1 24 -6 36 -11 21 -11 21 -19 2 -4 -11 -8 -14 -8 -7 -1 6 -8 12
-16 12 -8 0 -15 8 -15 18 0 12 -3 13 -8 5 -8 -13 -52 -6 -52 8 0 5 -8 9 -17 9
-33 0 -110 35 -106 48 3 6 1 13 -4 13 -47 8 -52 6 -42 -12z"/>
<path d="M2193 595 c-39 -17 -41 -22 -10 -22 13 0 29 8 35 18 7 11 11 19 10
19 -2 -1 -18 -7 -35 -15z"/>
<path d="M430 581 c-5 -11 -10 -28 -10 -38 1 -12 5 -8 14 12 l13 30 5 -29 c3
-17 2 -41 -3 -54 -5 -13 -9 -33 -8 -45 1 -15 4 -11 10 13 5 19 14 44 20 55 7
14 7 29 0 48 -12 32 -26 34 -41 8z"/>
<path d="M631 578 c-2 -31 -1 -33 17 -33 9 0 20 -4 24 -10 4 -6 8 -2 8 9 0 13
-5 17 -19 13 -15 -3 -21 1 -24 17 -3 15 -5 16 -6 4z"/>
<path d="M1108 571 c-19 -11 -39 -17 -43 -13 -4 4 -5 0 -3 -8 2 -8 -2 -14 -9
-15 -7 0 -18 -6 -25 -14 -10 -10 -10 -12 0 -7 15 9 15 6 -3 -37 -17 -42 -19
-105 -4 -127 7 -11 8 -2 4 30 -4 25 -2 56 5 70 10 23 10 23 5 -8 -3 -22 -1
-31 6 -26 6 3 9 21 8 39 -4 41 22 81 66 102 19 9 35 20 35 25 0 11 0 11 -42
-11z"/>
<path d="M635 510 c-25 -5 -27 -7 -11 -13 17 -7 18 -15 13 -85 -3 -43 -9 -87
-12 -97 -3 -11 2 -5 10 13 8 17 18 62 23 99 7 64 8 68 34 70 15 1 36 6 45 12
14 8 8 10 -27 8 -25 -1 -58 -4 -75 -7z"/>
<path d="M1226 501 c-17 -7 -17 -8 7 -24 14 -9 36 -19 50 -22 20 -6 25 -2 29
19 4 19 0 27 -14 32 -11 3 -22 3 -25 0 -4 -3 1 -6 10 -6 10 0 17 -7 17 -15 0
-18 -1 -18 -37 -4 -22 8 -24 12 -13 19 18 11 3 12 -24 1z"/>
<path d="M1370 474 c0 -9 23 -30 48 -43 12 -6 22 -8 22 -3 0 6 -10 12 -21 15
-15 4 -20 11 -16 21 5 11 0 16 -13 16 -11 0 -20 -3 -20 -6z"/>
<path d="M1112 448 c-16 -16 -16 -33 1 -21 21 16 40 9 48 -19 8 -32 -3 -43
-29 -29 -19 10 -32 6 -32 -11 0 -5 10 -6 21 -3 15 5 19 4 15 -4 -11 -18 10
-13 27 7 23 25 21 45 -6 70 -27 26 -29 26 -45 10z"/>
<path d="M1572 430 c-14 -24 -16 -70 -2 -70 6 0 10 5 10 11 0 5 5 7 10 4 15
-10 12 5 -6 22 -11 12 -12 18 -4 23 7 4 11 13 9 19 -2 6 -10 2 -17 -9z"/>
<path d="M2244 289 c-10 -12 -32 -30 -49 -40 -16 -11 -26 -19 -21 -19 15 0 72
42 85 62 15 24 8 23 -15 -3z"/>
<path d="M2130 275 c-14 -8 -20 -14 -13 -15 6 0 19 -3 29 -7 12 -4 15 -3 10 5
-4 7 -2 12 3 12 6 0 11 5 11 10 0 13 -10 12 -40 -5z"/>
<path d="M1 256 c2 -2 59 -10 127 -17 67 -6 122 -16 122 -20 0 -5 7 -9 16 -9
8 0 12 5 9 10 -3 6 4 10 18 10 39 0 87 12 87 21 0 5 -86 9 -192 9 -105 0 -189
-2 -187 -4z"/>
<path d="M276 176 c4 -9 33 -15 102 -19 60 -3 143 -17 219 -36 l121 -31 259 2
c205 1 237 3 153 8 -58 4 -179 8 -269 9 -129 1 -182 5 -250 22 -134 33 -183
42 -288 53 -42 5 -51 3 -47 -8z"/>
<path d="M158 163 c17 -2 47 -2 65 0 17 2 3 4 -33 4 -36 0 -50 -2 -32 -4z"/>
</g>
</svg>
