<?xml version="1.0" encoding="UTF-8" standalone="no"?>
<!DOCTYPE svg PUBLIC "-//W3C//DTD SVG 1.1//EN" "http://www.w3.org/Graphics/SVG/1.1/DTD/svg11.dtd">
<svg xmlns="http://www.w3.org/2000/svg" version="1.1" viewBox="0.00 0.00 655.00 658.00">
<g stroke-width="2.00" fill="none" stroke-linecap="butt">
<path stroke="#b0a5be" vector-effect="non-scaling-stroke" d="
  M 172.96 134.73
  C 174.06 164.84 169.49 198.14 199.55 216.64
  C 204.63 219.76 207.05 225.10 202.75 230.28
  C 201.15 232.20 198.68 233.19 196.42 234.37"
/>
<path stroke="#b1acc2" vector-effect="non-scaling-stroke" d="
  M 196.42 234.37
  C 174.04 249.46 172.75 279.23 173.49 304.00"
/>
<path stroke="#b2b6c9" vector-effect="non-scaling-stroke" d="
  M 173.49 304.00
  C 172.52 331.11 177.78 369.59 147.34 383.22
  C 143.78 384.81 139.37 386.20 136.67 388.63
  C 126.86 397.47 131.86 413.19 145.01 414.94
  Q 147.19 415.23 158.57 414.36
  C 184.86 412.33 208.42 402.97 219.25 377.62
  C 224.72 364.81 225.39 349.47 225.66 334.74
  Q 225.95 318.77 226.05 302.73"
/>
<path stroke="#b1acc2" vector-effect="non-scaling-stroke" d="
  M 226.05 302.73
  Q 225.34 286.57 227.48 274.01
  C 228.75 266.58 236.29 248.10 246.77 250.23
  Q 255.53 252.01 255.55 261.77
  Q 255.59 275.61 257.85 289.23"
/>
<path stroke="#b1b2c6" vector-effect="non-scaling-stroke" d="
  M 257.85 289.23
  C 263.00 321.59 281.83 362.95 316.98 372.27
  C 358.96 383.41 390.11 344.15 400.03 308.69"
/>
<path stroke="#b1acc2" vector-effect="non-scaling-stroke" d="
  M 400.03 308.69
  C 405.07 293.27 406.38 280.89 406.77 262.15
  C 407.02 250.00 420.13 246.17 426.93 255.84
  C 436.80 269.90 435.98 286.70 436.37 304.24"
/>
<path stroke="#b2b6c9" vector-effect="non-scaling-stroke" d="
  M 436.37 304.24
  Q 435.54 332.24 437.42 354.51
  C 441.22 399.35 472.29 413.73 512.99 415.05
  Q 518.61 415.23 522.98 412.99
  C 531.90 408.42 533.74 396.84 526.70 389.66
  C 523.18 386.07 516.29 384.49 512.33 382.41
  C 486.83 369.01 488.87 334.95 488.91 310.69"
/>
<path stroke="#b1acc2" vector-effect="non-scaling-stroke" d="
  M 488.91 310.69
  Q 489.39 293.87 487.71 277.19
  C 485.88 258.90 480.84 245.72 466.05 234.97
  Q 464.27 233.67 462.22 233.02"
/>
<path stroke="#b0a5be" vector-effect="non-scaling-stroke" d="
  M 462.22 233.02
  Q 454.54 228.19 458.20 221.12
  C 459.70 218.23 463.52 216.34 466.34 214.52
  C 479.00 206.34 485.92 191.11 487.48 176.74
  Q 489.40 159.04 488.97 138.24"
/>
<path stroke="#af98b5" vector-effect="non-scaling-stroke" d="
  M 488.97 138.24
  C 488.94 118.32 487.55 97.94 498.32 80.06
  C 504.27 70.19 511.59 67.73 521.52 63.57
  C 534.21 58.25 534.12 40.45 521.68 35.73
  Q 517.32 34.08 508.16 34.65
  C 492.99 35.58 474.78 39.23 462.41 47.81
  C 443.68 60.81 438.08 80.56 436.89 102.82
  Q 435.97 120.02 436.26 137.22"
/>
<path stroke="#b0a5be" vector-effect="non-scaling-stroke" d="
  M 436.26 137.22
  C 436.76 164.18 437.60 199.42 406.44 208.72
  C 396.56 211.67 392.87 201.31 389.36 194.83
  Q 381.54 180.44 369.11 169.57
  Q 368.71 169.22 368.37 169.62
  Q 356.77 183.18 338.70 183.08
  A 0.38 0.37 31.9 0 1 338.53 182.37
  L 339.22 182.04"
/>
<path stroke="#af98b5" vector-effect="non-scaling-stroke" d="
  M 339.22 182.04
  Q 351.93 178.18 358.78 169.23
  C 375.74 147.08 375.97 113.72 356.63 92.20
  Q 356.27 91.80 356.53 91.33
  C 365.34 75.48 357.65 57.23 340.72 51.89
  A 0.37 0.37 0.0 0 0 340.30 52.44
  C 345.61 60.47 348.50 73.21 344.48 82.56
  A 0.65 0.64 -67.5 0 1 343.65 82.91
  Q 331.48 78.22 319.27 82.79
  A 1.15 1.14 -17.8 0 1 317.77 82.02
  Q 313.39 66.03 322.31 52.29
  Q 322.58 51.88 322.11 52.01
  C 304.61 57.02 297.18 75.39 305.81 91.31
  Q 306.05 91.75 305.72 92.14
  C 290.88 109.38 287.52 133.42 295.35 154.48
  C 296.47 157.50 298.31 160.77 299.94 163.89
  Q 300.20 164.39 299.74 164.71
  Q 290.71 170.95 283.62 179.40"
/>
<path stroke="#b0a5be" vector-effect="non-scaling-stroke" d="
  M 283.62 179.40
  Q 275.36 189.46 269.58 201.25
  C 263.59 213.46 251.81 209.14 243.66 202.29
  Q 226.76 188.09 226.29 165.00
  Q 225.92 147.12 225.81 129.26"
/>
<path stroke="#af98b5" vector-effect="non-scaling-stroke" d="
  M 225.81 129.26
  Q 226.18 110.94 224.13 92.91
  C 219.01 47.94 186.98 34.83 146.20 34.47
  C 129.03 34.32 126.35 58.75 141.48 63.75
  C 173.42 74.29 173.94 106.69 172.96 134.73"
/>
<path stroke="#603d73" vector-effect="non-scaling-stroke" d="
  M 225.81 129.26
  L 225.76 139.49
  Q 225.75 141.53 225.43 139.52
  L 225.03 137.02
  Q 224.97 136.65 224.71 136.92
  L 224.17 137.46
  A 1.01 1.00 34.0 0 1 223.06 137.67
  Q 219.82 136.29 216.55 137.31
  A 0.66 0.60 -42.1 0 1 216.20 137.31
  Q 213.88 136.59 208.00 136.49
  Q 189.62 136.17 177.75 137.56
  Q 176.11 137.75 175.68 138.44
  Q 175.58 138.62 175.55 138.42
  L 175.48 137.97
  A 0.30 0.30 0.0 0 0 174.89 137.92
  Q 174.82 138.13 174.75 138.33
  A 0.24 0.24 0.0 0 1 174.28 138.26
  L 174.14 136.33
  Q 174.13 136.22 174.02 136.24
  L 173.55 136.30
  Q 173.31 136.34 173.32 136.09
  Q 173.35 135.19 172.96 134.73"
/>
<path stroke="#625281" vector-effect="non-scaling-stroke" d="
  M 462.22 233.02
  Q 461.50 232.88 461.66 233.80
  Q 461.77 234.38 462.34 234.53
  Q 462.46 234.57 462.42 234.69
  Q 462.37 234.83 462.25 234.88
  Q 462.12 234.95 461.92 234.85
  Q 460.71 234.29 459.51 233.63
  Q 459.25 233.48 459.25 233.78
  L 459.25 234.21
  Q 459.25 234.65 458.87 234.87
  C 453.94 237.76 446.62 237.05 440.96 237.74
  A 1.76 1.68 -34.2 0 1 440.00 237.58
  C 437.71 236.49 435.32 237.52 433.60 237.51
  Q 430.63 237.49 427.64 237.50
  A 1.22 1.19 -23.8 0 1 426.84 237.20
  Q 426.48 236.89 425.99 236.86
  Q 415.50 236.33 405.01 236.86
  C 399.59 237.14 395.16 239.65 389.52 237.66
  Q 389.04 237.49 388.56 237.69
  Q 387.66 238.06 387.01 237.98
  C 381.62 237.28 375.37 237.96 370.99 237.87
  C 351.70 237.48 332.93 238.66 314.00 237.77
  Q 307.83 237.47 296.34 238.02
  Q 291.95 238.23 285.79 237.84
  Q 280.50 237.50 275.20 237.67
  C 273.32 237.73 271.82 236.80 269.75 236.98
  Q 266.68 237.26 265.80 237.16
  Q 256.45 236.13 247.05 236.23
  C 241.37 236.29 232.78 236.68 227.10 238.32
  Q 224.94 238.94 222.76 238.42
  Q 222.27 238.31 221.78 238.42
  C 218.86 239.11 215.03 237.33 212.74 238.31
  Q 212.24 238.53 211.74 238.28
  Q 208.44 236.69 205.28 238.51
  A 1.48 1.47 -56.3 0 1 204.36 238.70
  Q 200.15 238.18 198.04 234.64
  Q 197.76 234.17 197.37 234.56
  L 196.89 235.04
  Q 196.58 235.35 196.51 234.92
  L 196.42 234.37"
/>
<path stroke="#63638c" vector-effect="non-scaling-stroke" d="
  M 488.91 310.69
  Q 485.95 306.09 479.97 306.71
  C 472.84 307.45 466.28 306.06 459.18 306.41
  C 453.75 306.68 443.27 307.76 438.56 305.04
  Q 438.09 304.77 437.95 305.29
  L 437.47 307.03
  A 0.33 0.33 0.0 0 1 436.83 307.00
  L 436.37 304.24"
/>
<path stroke="#635f89" vector-effect="non-scaling-stroke" d="
  M 400.03 308.69
  L 399.64 308.94
  Q 399.19 309.23 399.09 308.71
  C 398.77 307.00 396.92 306.64 395.35 306.97
  Q 391.42 307.79 387.50 306.29
  Q 387.01 306.10 386.59 306.42
  Q 385.52 307.23 384.17 306.65"
/>
<path stroke="#b1acc2" vector-effect="non-scaling-stroke" d="
  M 384.17 306.65
  Q 392.03 283.71 391.19 259.12
  A 0.31 0.31 0.0 0 0 390.57 259.08
  Q 388.37 273.13 383.07 287.19"
/>
<path stroke="#635f89" vector-effect="non-scaling-stroke" d="
  M 383.07 287.19
  Q 382.22 285.52 381.48 285.52
  Q 379.57 285.53 377.75 286.26
  A 1.14 1.13 47.7 0 1 376.77 286.21
  Q 375.89 285.73 374.95 285.41
  Q 372.96 284.73 372.59 286.01
  Q 372.46 286.47 372.10 286.79
  C 370.56 288.12 368.97 287.46 367.58 287.70
  C 365.18 288.12 362.98 288.48 360.44 288.40
  C 355.16 288.24 349.74 289.02 344.52 288.45
  C 340.56 288.02 338.10 288.69 334.94 288.70
  C 330.45 288.72 326.01 289.17 321.54 289.06
  C 312.10 288.81 303.36 289.26 294.25 289.01
  C 292.58 288.96 290.48 288.29 288.38 288.73
  A 1.07 1.04 57.2 0 1 287.52 288.53
  C 284.37 286.13 280.53 288.02 276.74 286.57
  Q 276.27 286.39 275.78 286.54
  C 272.80 287.44 271.02 287.66 267.68 286.80
  Q 265.16 286.15 262.50 286.25
  Q 262.00 286.27 262.00 286.77
  L 262.00 287.22
  Q 262.00 287.82 261.44 288.01
  L 257.85 289.23"
/>
<path stroke="#63638c" vector-effect="non-scaling-stroke" d="
  M 226.05 302.73
  L 225.76 308.63
  Q 225.76 308.69 225.71 308.69
  Q 225.68 308.69 225.65 308.69
  Q 225.64 308.69 225.62 308.49
  L 225.07 303.17
  Q 225.01 302.65 224.74 303.10
  Q 224.60 303.34 224.36 303.44
  Q 224.11 303.54 223.66 303.38
  Q 217.90 301.29 211.75 301.55
  Q 210.44 301.61 209.18 301.11
  Q 208.77 300.95 208.34 301.05
  L 202.82 302.31
  Q 202.28 302.43 201.82 302.13
  Q 199.93 300.91 197.93 301.96
  A 1.26 1.26 0.0 0 1 196.99 302.06
  Q 195.00 301.48 193.02 302.02
  A 1.78 1.73 45.8 0 1 192.00 301.99
  C 188.52 300.85 185.85 302.29 182.79 302.20
  Q 179.11 302.10 175.40 302.12
  Q 174.75 302.12 174.75 301.47
  L 174.75 300.85
  A 0.23 0.23 0.0 0 0 174.29 300.84
  Q 174.22 302.64 173.49 304.00"
/>
<path stroke="#603d73" vector-effect="non-scaling-stroke" d="
  M 488.97 138.24
  Q 488.64 138.31 488.40 138.21
  Q 488.16 138.12 488.07 137.81
  Q 488.01 137.58 488.00 137.30
  Q 487.98 136.89 487.61 137.07
  Q 487.10 137.34 486.50 137.27
  C 481.99 136.74 475.73 135.90 471.28 136.77
  Q 470.81 136.86 470.36 136.73
  C 467.93 136.05 465.71 136.89 463.50 136.59
  Q 455.12 135.47 446.73 136.53
  C 444.11 136.86 441.47 136.54 438.79 136.72
  Q 438.56 136.73 438.52 136.95
  Q 438.48 137.10 438.36 137.22
  Q 438.07 137.53 437.77 137.22
  Q 436.66 136.08 436.26 137.22"
/>
<path stroke="#603d73" vector-effect="non-scaling-stroke" d="
  M 339.22 182.04
  Q 338.00 181.66 336.61 181.99
  Q 336.11 182.11 335.88 182.57
  Q 334.37 185.66 330.84 184.73
  Q 330.36 184.60 329.87 184.72
  Q 323.81 186.30 317.62 185.93
  C 311.38 185.55 305.19 185.42 298.95 185.14
  C 294.75 184.95 289.78 186.30 285.24 184.98
  A 2.39 2.39 0.0 0 1 284.25 180.95
  Q 284.68 180.54 283.62 179.40"
/>
<path stroke="#b1b2c6" vector-effect="non-scaling-stroke" d="
  M 384.17 306.65
  C 375.85 330.58 356.95 355.77 329.26 357.25
  Q 315.57 357.99 303.60 350.27
  Q 302.85 349.80 303.74 349.86
  Q 312.81 350.49 315.24 350.19
  C 349.24 345.92 371.93 317.33 383.07 287.19"
/>
<path stroke="#b1a9c0" vector-effect="non-scaling-stroke" d="
  M 394.71 515.91
  C 396.40 534.94 406.64 552.28 428.82 548.10
  C 459.69 542.30 459.77 480.01 429.76 473.33
  C 402.20 467.19 392.81 494.57 394.71 515.91"
/>
<path stroke="#b0a5be" vector-effect="non-scaling-stroke" d="
  M 78.27 516.02
  L 78.26 546.64
  A 0.64 0.63 89.1 0 0 78.91 547.28
  Q 90.96 546.92 103.12 546.98
  Q 111.40 547.01 115.23 545.74
  C 128.89 541.17 134.40 524.94 133.91 511.52"
/>
<path stroke="#b1acc2" vector-effect="non-scaling-stroke" d="
  M 133.91 511.52
  C 135.04 493.47 126.58 473.96 105.76 474.00
  Q 92.16 474.02 78.99 473.99
  A 0.73 0.73 0.0 0 0 78.26 474.72
  L 78.27 516.02"
/>
<path stroke="#625281" vector-effect="non-scaling-stroke" d="
  M 133.91 511.52
  Q 133.73 510.62 133.03 510.56
  Q 132.75 510.54 132.75 510.81
  L 132.75 511.22
  Q 132.75 511.68 132.35 511.44
  L 131.97 511.21
  Q 131.64 511.02 131.27 511.04
  Q 122.19 511.51 113.70 509.67"
/>
<path stroke="#b1acc2" vector-effect="non-scaling-stroke" d="
  M 113.70 509.67
  C 113.41 504.04 112.65 492.65 105.25 492.25
  Q 103.66 492.17 99.01 492.28
  Q 98.50 492.30 98.50 492.80
  L 98.48 516.40"
/>
<path stroke="#625281" vector-effect="non-scaling-stroke" d="
  M 98.48 516.40
  Q 98.38 515.19 95.88 516.06
  A 1.87 1.86 -47.0 0 1 94.81 516.10
  Q 87.05 514.16 79.10 514.62
  Q 79.00 514.62 79.00 514.53
  Q 79.00 514.39 79.01 514.25
  A 0.16 0.16 0.0 0 0 78.70 514.20
  L 78.27 516.02"
/>
<path stroke="#b0a5be" vector-effect="non-scaling-stroke" d="
  M 113.70 509.67
  Q 113.70 517.39 112.43 521.50
  Q 109.42 531.27 98.93 528.63
  Q 98.48 528.52 98.48 528.05
  L 98.48 516.40"
/>
<path stroke="#b1a9c0" vector-effect="non-scaling-stroke" d="
  M 165.96 519.11
  A 0.60 0.60 0.0 0 1 166.56 518.50
  L 185.15 518.50
  A 0.60 0.60 0.0 0 0 185.75 517.90
  L 185.75 501.10
  A 0.60 0.60 0.0 0 0 185.15 500.50
  L 166.60 500.50
  A 0.60 0.60 0.0 0 1 166.00 499.90
  L 166.01 492.80
  A 0.60 0.60 0.0 0 1 166.61 492.20
  L 192.44 492.28
  A 0.60 0.60 0.0 0 0 193.04 491.68
  L 192.98 474.62
  A 0.60 0.60 0.0 0 0 192.38 474.02
  L 146.35 473.99
  A 0.60 0.60 0.0 0 0 145.75 474.59
  L 145.75 546.65
  A 0.60 0.60 0.0 0 0 146.35 547.25
  L 192.54 547.15
  A 0.60 0.60 0.0 0 0 193.14 546.54
  L 192.94 529.59
  A 0.60 0.60 0.0 0 0 192.34 529.00
  L 166.69 529.00
  A 0.60 0.60 0.0 0 1 166.09 528.41
  L 165.96 519.11"
/>
<path stroke="#b1a9c0" vector-effect="non-scaling-stroke" d="
  M 244.98 474.00
  A 0.35 0.35 0.0 0 0 244.63 474.28
  L 235.10 521.38
  A 0.35 0.35 0.0 0 1 234.41 521.37
  L 225.00 474.28
  A 0.35 0.35 0.0 0 0 224.65 474.00
  L 204.98 474.00
  A 0.35 0.35 0.0 0 0 204.64 474.43
  L 222.34 547.02
  A 0.35 0.35 0.0 0 0 222.69 547.29
  L 246.95 546.97
  A 0.35 0.35 0.0 0 0 247.28 546.71
  L 264.93 474.43
  A 0.35 0.35 0.0 0 0 264.59 474.00
  L 244.98 474.00"
/>
<path stroke="#b1a9c0" vector-effect="non-scaling-stroke" d="
  M 297.46 529.00
  A 0.39 0.39 0.0 0 1 297.07 528.63
  L 296.70 519.18
  A 0.39 0.39 0.0 0 1 297.08 518.77
  L 316.12 518.42
  A 0.39 0.39 0.0 0 0 316.50 518.03
  L 316.50 500.88
  A 0.39 0.39 0.0 0 0 316.11 500.49
  L 297.15 500.38
  A 0.39 0.39 0.0 0 1 296.76 499.99
  L 296.75 492.64
  A 0.39 0.39 0.0 0 1 297.14 492.25
  L 323.28 492.25
  A 0.39 0.39 0.0 0 0 323.67 491.87
  L 323.97 474.43
  A 0.39 0.39 0.0 0 0 323.58 474.03
  L 277.00 473.98
  A 0.39 0.39 0.0 0 0 276.61 474.37
  L 276.54 546.92
  A 0.39 0.39 0.0 0 0 276.93 547.31
  L 323.58 546.93
  A 0.39 0.39 0.0 0 0 323.96 546.54
  L 323.67 529.38
  A 0.39 0.39 0.0 0 0 323.28 529.00
  L 297.46 529.00"
/>
<path stroke="#b0a5be" vector-effect="non-scaling-stroke" d="
  M 335.50 546.72
  A 0.37 0.37 0.0 0 0 335.87 547.09
  L 382.38 546.98
  A 0.37 0.37 0.0 0 0 382.75 546.61
  L 382.75 529.32
  A 0.37 0.37 0.0 0 0 382.38 528.95
  L 356.12 529.11
  A 0.37 0.37 0.0 0 1 355.75 528.74
  L 355.75 474.37
  A 0.37 0.37 0.0 0 0 355.38 474.00
  L 335.87 474.00
  A 0.37 0.37 0.0 0 0 335.50 474.37
  L 335.50 546.72"
/>
<path stroke="#b1a9c0" vector-effect="non-scaling-stroke" d="
  M 464.61 547.13
  L 483.78 546.97
  Q 484.28 546.97 484.28 546.47
  L 484.18 526.23
  A 0.55 0.55 0.0 0 1 484.77 525.68
  C 492.85 526.16 502.55 525.83 508.99 519.96
  C 522.82 507.38 519.54 482.65 501.53 475.70
  Q 497.71 474.23 490.25 474.09
  Q 477.31 473.86 464.72 474.05
  Q 463.90 474.06 463.90 474.88
  L 463.84 546.36
  Q 463.84 547.14 464.61 547.13"
/>
<path stroke="#b1a9c0" vector-effect="non-scaling-stroke" d="
  M 555.38 527.51
  L 563.87 546.58
  Q 564.03 546.94 564.42 546.95
  L 584.04 547.12
  A 0.35 0.35 0.0 0 0 584.36 546.61
  L 565.21 509.34
  A 1.32 1.29 -44.3 0 1 565.24 508.10
  L 584.24 474.77
  A 0.52 0.51 14.8 0 0 583.79 474.00
  L 564.52 474.00
  Q 564.04 474.00 563.84 474.44
  C 561.34 479.91 557.06 486.28 555.50 491.90
  A 0.38 0.38 0.0 0 1 554.79 491.97
  L 546.36 474.40
  Q 546.17 474.00 545.73 474.00
  L 526.47 474.00
  A 0.50 0.50 0.0 0 0 526.03 474.75
  L 544.39 506.96
  A 3.75 3.72 43.9 0 1 544.47 510.51
  L 525.93 546.51
  A 0.42 0.41 14.2 0 0 526.30 547.12
  L 545.62 547.30
  A 0.71 0.71 0.0 0 0 546.29 546.87
  L 554.69 527.52
  A 0.38 0.38 0.0 0 1 555.38 527.51"
/>
<path stroke="#b1a9c0" vector-effect="non-scaling-stroke" d="
  M 44.18 614.45
  A 0.31 0.31 0.0 0 1 43.57 614.44
  L 41.07 597.76
  A 0.31 0.31 0.0 0 0 40.76 597.50
  L 35.82 597.50
  A 0.31 0.31 0.0 0 0 35.52 597.86
  L 39.96 626.49
  A 0.31 0.31 0.0 0 0 40.27 626.75
  L 46.98 626.75
  A 0.31 0.31 0.0 0 0 47.28 626.49
  L 50.08 609.74
  A 0.31 0.31 0.0 0 1 50.69 609.74
  L 53.40 626.49
  A 0.31 0.31 0.0 0 0 53.70 626.75
  L 60.58 626.75
  A 0.31 0.31 0.0 0 0 60.89 626.49
  L 65.35 597.86
  A 0.31 0.31 0.0 0 0 65.05 597.50
  L 60.17 597.50
  A 0.31 0.31 0.0 0 0 59.86 597.76
  L 57.30 614.44
  A 0.31 0.31 0.0 0 1 56.69 614.45
  L 53.64 597.39
  A 0.31 0.31 0.0 0 0 53.31 597.13
  L 47.41 597.59
  A 0.31 0.31 0.0 0 0 47.13 597.85
  L 44.18 614.45"
/>
<path stroke="#b1a9c0" vector-effect="non-scaling-stroke" d="
  M 109.62 616.04
  L 105.28 598.23
  A 0.78 0.77 3.0 0 0 104.79 597.69
  Q 102.50 596.88 100.18 597.58
  Q 99.59 597.76 99.74 598.35
  L 106.50 626.09
  Q 106.66 626.75 107.34 626.75
  L 112.59 626.75
  Q 113.18 626.75 113.32 626.18
  L 120.16 598.14
  Q 120.31 597.50 119.66 597.50
  L 115.38 597.50
  Q 114.73 597.50 114.58 598.13
  L 110.27 616.04
  Q 109.94 617.38 109.62 616.04"
/>
<path stroke="#b1a9c0" vector-effect="non-scaling-stroke" d="
  M 511.2495 600.8945
  A 3.45 3.45 0.0 0 0 507.8056 597.4385
  L 498.1056 597.4216
  A 3.45 3.45 0.0 0 0 494.6496 600.8655
  L 494.6105 623.2655
  A 3.45 3.45 0.0 0 0 498.0544 626.7215
  L 507.7544 626.7384
  A 3.45 3.45 0.0 0 0 511.2104 623.2945
  L 511.2495 600.8945"
/>
<path stroke="#b1a9c0" vector-effect="non-scaling-stroke" d="
  M 597.66 612.51
  L 603.18 626.08
  Q 603.41 626.65 604.01 626.70
  L 607.96 627.05
  A 0.87 0.87 0.0 0 0 608.90 626.26
  C 609.72 616.91 608.62 607.63 609.25 598.30
  A 1.05 1.04 -0.7 0 0 608.10 597.19
  L 604.69 597.52
  Q 604.09 597.58 604.08 598.18
  L 603.75 611.48
  A 0.29 0.29 0.0 0 1 603.20 611.58
  L 597.78 598.11
  Q 597.53 597.50 596.87 597.50
  L 592.47 597.50
  Q 591.94 597.50 591.94 598.03
  L 592.00 626.12
  Q 592.00 626.75 592.62 626.75
  L 596.64 626.75
  Q 597.28 626.75 597.28 626.11
  L 597.19 612.60
  A 0.24 0.24 0.0 0 1 597.66 612.51"
/>
<path stroke="#b1a9c0" vector-effect="non-scaling-stroke" d="
  M 71.25 602.80
  A 0.54 0.54 0.0 0 1 71.79 602.26
  L 79.71 602.25
  A 0.54 0.54 0.0 0 0 80.25 601.71
  L 80.25 598.04
  A 0.54 0.54 0.0 0 0 79.71 597.50
  L 66.80 597.50
  A 0.54 0.54 0.0 0 0 66.26 598.03
  L 65.95 626.22
  A 0.54 0.54 0.0 0 0 66.49 626.77
  L 80.50 626.72
  A 0.54 0.54 0.0 0 0 81.04 626.12
  L 80.62 622.23
  A 0.54 0.54 0.0 0 0 80.08 621.75
  L 71.76 621.75
  A 0.54 0.54 0.0 0 1 71.22 621.20
  L 71.31 615.03
  A 0.54 0.54 0.0 0 1 71.85 614.50
  L 78.70 614.50
  A 0.54 0.54 0.0 0 0 79.24 613.96
  L 79.27 610.29
  A 0.54 0.54 0.0 0 0 78.73 609.75
  L 71.79 609.74
  A 0.54 0.54 0.0 0 1 71.25 609.20
  L 71.25 602.80"
/>
<path stroke="#b1a9c0" vector-effect="non-scaling-stroke" d="
  M 81.59 626.21
  A 0.33 0.33 0.0 0 0 81.89 626.62
  L 86.85 626.80
  A 0.33 0.33 0.0 0 0 87.18 626.54
  L 88.52 620.66
  A 0.33 0.33 0.0 0 1 88.84 620.41
  L 94.95 620.35
  A 0.33 0.33 0.0 0 1 95.28 620.61
  L 96.53 626.40
  A 0.33 0.33 0.0 0 0 96.83 626.66
  L 102.01 626.91
  A 0.33 0.33 0.0 0 0 102.34 626.50
  L 95.07 597.75
  A 0.33 0.33 0.0 0 0 94.75 597.50
  L 88.90 597.50
  A 0.33 0.33 0.0 0 0 88.58 597.75
  L 81.59 626.21"
/>
<path stroke="#b1a9c0" vector-effect="non-scaling-stroke" d="
  M 127.77 598.03
  A 0.51 0.51 0.0 0 0 127.26 597.52
  L 123.02 597.52
  A 0.51 0.51 0.0 0 0 122.51 598.03
  L 122.51 626.23
  A 0.51 0.51 0.0 0 0 123.02 626.74
  L 127.26 626.74
  A 0.51 0.51 0.0 0 0 127.77 626.23
  L 127.77 598.03"
/>
<path stroke="#b1a9c0" vector-effect="non-scaling-stroke" d="
  M 135.74 626.75
  A 0.34 0.34 0.0 0 0 136.08 626.41
  L 135.97 612.68
  A 0.34 0.34 0.0 0 1 136.63 612.55
  L 142.23 626.55
  A 0.34 0.34 0.0 0 0 142.55 626.77
  L 147.69 626.70
  A 0.34 0.34 0.0 0 0 148.03 626.36
  L 148.03 597.90
  A 0.34 0.34 0.0 0 0 147.69 597.56
  L 143.09 597.50
  A 0.34 0.34 0.0 0 0 142.75 597.84
  L 142.74 611.22
  A 0.34 0.34 0.0 0 1 142.09 611.35
  L 136.55 597.70
  A 0.34 0.34 0.0 0 0 136.23 597.49
  L 131.09 597.51
  A 0.34 0.34 0.0 0 0 130.75 597.85
  L 130.75 626.41
  A 0.34 0.34 0.0 0 0 131.09 626.75
  L 135.74 626.75"
/>
<path stroke="#b1a9c0" vector-effect="non-scaling-stroke" d="
  M 160.10 621.74
  L 155.40 621.74
  A 0.65 0.65 0.0 0 1 154.75 621.09
  L 154.75 602.93
  Q 154.75 602.36 155.32 602.36
  L 164.78 602.20
  Q 165.25 602.19 165.25 601.72
  L 165.25 598.00
  Q 165.25 597.50 164.75 597.50
  L 152.89 597.50
  A 3.37 3.36 -89.9 0 0 149.53 600.86
  L 149.49 623.43
  A 3.40 3.40 0.0 0 0 152.92 626.84
  L 165.37 626.71
  A 0.83 0.82 -0.7 0 0 166.19 625.88
  L 165.98 610.24
  Q 165.97 609.75 165.49 609.75
  L 158.18 609.75
  A 0.61 0.61 0.0 0 0 157.57 610.32
  L 157.34 613.84
  A 0.57 0.56 -85.2 0 0 157.84 614.44
  L 160.15 614.71
  Q 160.75 614.79 160.75 615.39
  L 160.75 621.09
  Q 160.75 621.74 160.10 621.74"
/>
<path stroke="#b1acc2" vector-effect="non-scaling-stroke" d="
  M 181.63 602.25
  Q 182.75 602.25 182.74 603.38
  L 182.42 626.08
  Q 182.41 626.75 183.08 626.75
  L 187.73 626.75
  Q 188.21 626.75 188.20 626.27
  L 187.93 602.92
  Q 187.92 602.25 188.58 602.25
  L 191.94 602.25
  Q 192.81 602.25 193.07 601.42
  Q 194.18 597.79 191.54 597.66
  Q 184.79 597.32 178.02 597.71
  Q 177.50 597.74 177.50 598.26
  L 177.50 601.75
  Q 177.50 602.25 178.00 602.25
  L 181.63 602.25"
/>
<path stroke="#b0a5be" vector-effect="non-scaling-stroke" d="
  M 218.16 602.25
  L 227.31 602.25
  Q 227.89 602.25 227.94 601.68
  L 228.29 598.20
  A 0.61 0.60 -87.4 0 0 227.69 597.54
  L 215.02 597.54
  A 2.44 2.44 0.0 0 0 212.58 599.97
  L 212.47 623.73
  Q 212.45 626.75 215.48 626.75
  L 228.00 626.75
  A 0.80 0.80 0.0 0 0 228.80 625.94
  L 228.72 610.40
  A 0.64 0.64 0.0 0 0 228.08 609.76
  L 221.30 609.75
  Q 220.34 609.74 220.34 610.70
  L 220.34 613.68
  Q 220.34 614.29 220.94 614.39
  L 223.21 614.75
  Q 223.81 614.85 223.78 615.46
  L 223.52 621.13
  Q 223.50 621.75 222.87 621.75
  L 218.00 621.75
  Q 217.50 621.75 217.50 621.25
  L 217.50 602.91
  A 0.66 0.66 0.0 0 1 218.16 602.25"
/>
<path stroke="#b1a9c0" vector-effect="non-scaling-stroke" d="
  M 235.51 615.05
  A 0.54 0.54 0.0 0 1 236.05 614.51
  L 242.96 614.50
  A 0.54 0.54 0.0 0 0 243.50 613.96
  L 243.50 610.29
  A 0.54 0.54 0.0 0 0 242.96 609.75
  L 236.04 609.75
  A 0.54 0.54 0.0 0 1 235.50 609.21
  L 235.50 602.79
  A 0.54 0.54 0.0 0 1 236.04 602.25
  L 243.63 602.25
  A 0.54 0.54 0.0 0 0 244.17 601.75
  L 244.44 598.12
  A 0.54 0.54 0.0 0 0 243.90 597.54
  L 230.79 597.56
  A 0.54 0.54 0.0 0 0 230.25 598.10
  L 230.25 626.21
  A 0.54 0.54 0.0 0 0 230.79 626.75
  L 244.71 626.75
  A 0.54 0.54 0.0 0 0 245.25 626.21
  L 245.25 622.29
  A 0.54 0.54 0.0 0 0 244.71 621.75
  L 236.03 621.75
  A 0.54 0.54 0.0 0 1 235.49 621.21
  L 235.51 615.05"
/>
<path stroke="#b1a9c0" vector-effect="non-scaling-stroke" d="
  M 251.65 602.25
  A 0.37 0.37 0.0 0 1 252.02 602.63
  L 251.64 626.79
  A 0.37 0.37 0.0 0 0 252.04 627.16
  L 256.99 626.67
  A 0.37 0.37 0.0 0 0 257.33 626.30
  L 257.05 602.62
  A 0.37 0.37 0.0 0 1 257.42 602.25
  L 261.87 602.25
  A 0.37 0.37 0.0 0 0 262.24 601.88
  L 262.28 597.85
  A 0.37 0.37 0.0 0 0 261.90 597.47
  L 247.12 597.62
  A 0.37 0.37 0.0 0 0 246.75 597.99
  L 246.75 601.88
  A 0.37 0.37 0.0 0 0 247.12 602.25
  L 251.65 602.25"
/>
<path stroke="#b1a9c0" vector-effect="non-scaling-stroke" d="
  M 275.29 614.57
  A 0.51 0.51 0.0 0 1 275.80 615.09
  L 275.64 626.24
  A 0.51 0.51 0.0 0 0 276.15 626.76
  L 280.32 626.74
  A 0.51 0.51 0.0 0 0 280.83 626.23
  L 280.75 598.10
  A 0.51 0.51 0.0 0 0 280.24 597.60
  L 276.25 597.63
  A 0.51 0.51 0.0 0 0 275.75 598.14
  L 275.75 609.30
  A 0.51 0.51 0.0 0 1 275.22 609.81
  L 269.16 609.60
  A 0.51 0.51 0.0 0 1 268.67 609.08
  L 268.95 597.96
  A 0.51 0.51 0.0 0 0 268.41 597.44
  L 264.26 597.66
  A 0.51 0.51 0.0 0 0 263.78 598.17
  L 263.70 626.25
  A 0.51 0.51 0.0 0 0 264.21 626.76
  L 268.60 626.74
  A 0.51 0.51 0.0 0 0 269.10 626.23
  L 268.96 615.12
  A 0.51 0.51 0.0 0 1 269.46 614.61
  L 275.29 614.57"
/>
<path stroke="#b1a9c0" vector-effect="non-scaling-stroke" d="
  M 287.80 615.15
  A 0.59 0.59 0.0 0 1 288.38 614.58
  L 295.17 614.46
  A 0.59 0.59 0.0 0 0 295.75 613.87
  L 295.75 610.37
  A 0.59 0.59 0.0 0 0 295.17 609.78
  L 288.25 609.70
  A 0.59 0.59 0.0 0 1 287.66 609.10
  L 287.71 602.91
  A 0.59 0.59 0.0 0 1 288.29 602.32
  L 295.85 602.22
  A 0.59 0.59 0.0 0 0 296.43 601.68
  L 296.76 598.14
  A 0.59 0.59 0.0 0 0 296.17 597.50
  L 283.09 597.50
  A 0.59 0.59 0.0 0 0 282.50 598.09
  L 282.50 626.16
  A 0.59 0.59 0.0 0 0 283.09 626.75
  L 296.91 626.75
  A 0.59 0.59 0.0 0 0 297.50 626.16
  L 297.50 622.40
  A 0.59 0.59 0.0 0 0 296.92 621.81
  L 288.21 621.72
  A 0.59 0.59 0.0 0 1 287.63 621.11
  L 287.80 615.15"
/>
<path stroke="#b1a9c0" vector-effect="non-scaling-stroke" d="
  M 304.24 615.52
  A 0.35 0.35 0.0 0 1 304.91 615.37
  L 310.03 626.25
  Q 310.29 626.80 310.91 626.78
  L 315.70 626.62
  Q 316.38 626.59 316.09 625.98
  L 310.84 615.19
  Q 310.61 614.71 311.14 614.72
  C 313.93 614.73 315.28 613.46 315.27 610.55
  Q 315.26 605.50 315.23 600.51
  A 3.03 3.03 0.0 0 0 312.20 597.50
  L 299.58 597.50
  Q 298.91 597.50 298.91 598.17
  L 298.69 625.91
  Q 298.68 626.63 299.40 626.66
  L 303.60 626.80
  Q 304.27 626.82 304.27 626.15
  L 304.24 615.52"
/>
<path stroke="#b1a9c0" vector-effect="non-scaling-stroke" d="
  M 333.51 597.81
  A 0.29 0.29 0.0 0 0 333.22 597.52
  L 328.52 597.52
  A 0.29 0.29 0.0 0 0 328.23 597.81
  L 328.23 626.45
  A 0.29 0.29 0.0 0 0 328.52 626.74
  L 333.22 626.74
  A 0.29 0.29 0.0 0 0 333.51 626.45
  L 333.51 597.81"
/>
<path stroke="#b1a9c0" vector-effect="non-scaling-stroke" d="
  M 342.72 612.63
  L 348.00 626.31
  Q 348.17 626.74 348.64 626.75
  L 353.98 626.76
  Q 354.39 626.76 354.38 626.35
  Q 354.13 614.89 354.26 603.45
  C 354.28 601.90 353.43 599.63 354.58 597.69
  Q 354.70 597.49 354.47 597.50
  L 349.41 597.51
  A 0.64 0.64 0.0 0 0 348.77 598.15
  L 348.72 611.75
  A 0.38 0.38 0.0 0 1 347.98 611.87
  Q 345.60 604.74 342.42 597.95
  Q 342.22 597.50 341.72 597.50
  L 337.37 597.50
  Q 336.74 597.50 336.74 598.13
  L 336.74 626.12
  Q 336.74 626.75 337.37 626.75
  L 341.62 626.75
  Q 342.25 626.75 342.25 626.12
  L 342.25 612.72
  A 0.24 0.24 0.0 0 1 342.72 612.63"
/>
<path stroke="#b1acc2" vector-effect="non-scaling-stroke" d="
  M 365.92 602.90
  A 0.59 0.59 0.0 0 1 366.52 602.31
  L 370.45 602.36
  A 0.59 0.59 0.0 0 0 371.05 601.81
  L 371.30 598.13
  A 0.59 0.59 0.0 0 0 370.71 597.50
  L 356.07 597.50
  A 0.59 0.59 0.0 0 0 355.48 598.03
  L 355.09 601.60
  A 0.59 0.59 0.0 0 0 355.68 602.25
  L 360.22 602.25
  A 0.59 0.59 0.0 0 1 360.81 602.84
  L 360.62 626.16
  A 0.59 0.59 0.0 0 0 361.21 626.75
  L 365.47 626.75
  A 0.59 0.59 0.0 0 0 366.06 626.16
  L 365.92 602.90"
/>
<path stroke="#b1a9c0" vector-effect="non-scaling-stroke" d="
  M 378.57 615.41
  L 383.67 626.30
  Q 383.88 626.75 384.37 626.75
  L 389.26 626.75
  A 0.52 0.52 0.0 0 0 389.73 626.00
  L 384.49 615.24
  Q 384.23 614.70 384.83 614.71
  C 390.81 614.79 389.05 605.42 389.06 601.50
  Q 389.08 597.59 384.99 597.56
  Q 376.37 597.52 373.22 597.48
  Q 372.50 597.47 372.50 598.19
  L 372.50 626.12
  Q 372.50 626.82 373.19 626.79
  L 377.36 626.64
  Q 377.84 626.62 377.83 626.15
  L 377.71 615.60
  A 0.45 0.45 0.0 0 1 378.57 615.41"
/>
<path stroke="#b1a9c0" vector-effect="non-scaling-stroke" d="
  M 397.2454 598.0252
  A 0.50 0.50 0.0 0 0 396.7445 597.5261
  L 392.2245 597.5340
  A 0.50 0.50 0.0 0 0 391.7254 598.0348
  L 391.7746 626.2548
  A 0.50 0.50 0.0 0 0 392.2755 626.7539
  L 396.7955 626.7460
  A 0.50 0.50 0.0 0 0 397.2946 626.2452
  L 397.2454 598.0252"
/>
<path stroke="#b1a9c0" vector-effect="non-scaling-stroke" d="
  M 406.32 602.35
  L 414.03 602.20
  Q 414.50 602.20 414.50 601.72
  L 414.50 598.00
  Q 414.50 597.50 414.00 597.50
  L 403.75 597.50
  A 3.25 3.25 0.0 0 0 400.50 600.75
  L 400.50 623.63
  A 3.13 3.13 0.0 0 0 403.64 626.76
  L 420.51 626.69
  A 1.13 1.11 -83.5 0 0 421.60 625.81
  L 422.65 621.09
  Q 422.78 620.50 423.39 620.50
  L 428.71 620.50
  Q 429.42 620.50 429.56 621.20
  L 430.63 626.33
  Q 430.72 626.76 431.17 626.76
  L 435.69 626.72
  Q 436.43 626.71 436.25 625.99
  L 429.45 598.04
  Q 429.32 597.50 428.77 597.50
  L 423.42 597.50
  A 0.73 0.72 6.5 0 0 422.71 598.06
  L 415.98 625.89
  Q 415.84 626.48 415.57 625.94
  Q 414.88 624.56 415.52 623.17
  A 0.94 0.93 12.7 0 0 414.68 621.85
  L 406.47 621.71
  Q 405.75 621.69 405.75 620.97
  L 405.75 602.93
  Q 405.75 602.36 406.32 602.35"
/>
<path stroke="#b1a9c0" vector-effect="non-scaling-stroke" d="
  M 444.11 626.75
  A 0.72 0.72 0.0 0 0 444.83 626.02
  L 444.48 602.98
  A 0.72 0.72 0.0 0 1 445.20 602.25
  L 449.01 602.25
  A 0.72 0.72 0.0 0 0 449.73 601.53
  L 449.76 598.22
  A 0.72 0.72 0.0 0 0 449.04 597.50
  L 434.64 597.50
  A 0.72 0.72 0.0 0 0 433.93 598.28
  L 434.20 601.59
  A 0.72 0.72 0.0 0 0 434.92 602.25
  L 438.67 602.25
  A 0.72 0.72 0.0 0 1 439.39 602.98
  L 439.19 626.02
  A 0.72 0.72 0.0 0 0 439.91 626.75
  L 444.11 626.75"
/>
<path stroke="#b1a9c0" vector-effect="non-scaling-stroke" d="
  M 488.27 615.30
  L 488.12 621.16
  A 0.60 0.60 0.0 0 1 487.52 621.75
  L 478.75 621.75
  A 1.04 1.04 0.0 0 0 477.71 622.73
  L 477.49 626.10
  A 0.62 0.62 0.0 0 0 478.11 626.76
  L 490.25 626.73
  A 3.00 2.99 -89.9 0 0 493.24 623.74
  Q 493.25 619.11 493.32 613.74
  C 493.39 608.19 486.91 610.03 483.46 609.46
  Q 483.00 609.39 482.99 608.92
  L 482.87 602.91
  A 0.49 0.48 -1.8 0 1 483.34 602.42
  L 491.86 602.18
  Q 492.39 602.16 492.44 601.63
  L 492.73 598.12
  A 0.62 0.61 -87.9 0 0 492.11 597.45
  L 480.08 597.62
  A 2.30 2.30 0.0 0 0 477.81 599.91
  L 477.72 611.84
  A 2.50 2.50 0.0 0 0 480.08 614.35
  L 487.80 614.79
  Q 488.28 614.82 488.27 615.30"
/>
<path stroke="#b0a5be" vector-effect="non-scaling-stroke" d="
  M 512.48 626.15
  A 0.60 0.60 0.0 0 0 513.08 626.75
  L 526.91 626.75
  A 0.60 0.60 0.0 0 0 527.51 626.15
  L 527.48 622.43
  A 0.60 0.60 0.0 0 0 526.89 621.83
  L 518.31 621.71
  A 0.60 0.60 0.0 0 1 517.72 621.11
  L 517.81 598.10
  A 0.60 0.60 0.0 0 0 517.21 597.50
  L 513.18 597.50
  A 0.60 0.60 0.0 0 0 512.58 598.10
  L 512.48 626.15"
/>
<path stroke="#b0a5be" vector-effect="non-scaling-stroke" d="
  M 539.64 621.68
  L 534.90 621.78
  Q 534.25 621.79 534.25 621.15
  L 534.25 598.00
  Q 534.25 597.50 533.75 597.50
  L 529.72 597.50
  A 0.72 0.72 0.0 0 0 529.00 598.22
  Q 528.99 610.20 529.00 622.17
  C 529.00 625.25 529.50 626.54 532.76 626.64
  Q 540.00 626.86 543.98 626.48
  A 0.97 0.96 -82.6 0 0 544.79 625.85
  Q 545.49 623.88 545.48 621.74
  Q 545.43 610.05 545.27 598.30
  Q 545.26 597.76 544.72 597.76
  L 541.01 597.74
  Q 540.44 597.73 540.44 598.30
  L 540.20 621.11
  Q 540.20 621.67 539.64 621.68"
/>
<path stroke="#b1a9c0" vector-effect="non-scaling-stroke" d="
  M 551.61 602.25
  A 0.53 0.53 0.0 0 1 552.14 602.79
  L 551.91 626.14
  A 0.53 0.53 0.0 0 0 552.39 626.68
  L 556.94 627.04
  A 0.53 0.53 0.0 0 0 557.51 626.51
  L 557.48 602.78
  A 0.53 0.53 0.0 0 1 558.01 602.25
  L 561.97 602.25
  A 0.53 0.53 0.0 0 0 562.50 601.72
  L 562.50 597.96
  A 0.53 0.53 0.0 0 0 561.96 597.43
  L 546.97 597.66
  A 0.53 0.53 0.0 0 0 546.45 598.25
  L 546.84 601.78
  A 0.53 0.53 0.0 0 0 547.37 602.25
  L 551.61 602.25"
/>
<path stroke="#b1a9c0" vector-effect="non-scaling-stroke" d="
  M 570.7550 597.8154
  A 0.30 0.30 0.0 0 0 570.4545 597.5159
  L 565.7545 597.5241
  A 0.30 0.30 0.0 0 0 565.4550 597.8246
  L 565.5050 626.4446
  A 0.30 0.30 0.0 0 0 565.8055 626.7441
  L 570.5055 626.7359
  A 0.30 0.30 0.0 0 0 570.8050 626.4354
  L 570.7550 597.8154"
/>
<path stroke="#b1a9c0" vector-effect="non-scaling-stroke" d="
  M 590.5096 600.9344
  A 3.41 3.41 0.0 0 0 587.1055 597.5184
  L 577.4655 597.5016
  A 3.41 3.41 0.0 0 0 574.0496 600.9057
  L 574.0104 623.3256
  A 3.41 3.41 0.0 0 0 577.4145 626.7416
  L 587.0545 626.7584
  A 3.41 3.41 0.0 0 0 590.4704 623.3543
  L 590.5096 600.9344"
/>
<path stroke="#b1a9c0" vector-effect="non-scaling-stroke" d="
  M 620.99 615.35
  L 621.00 621.09
  A 0.66 0.66 0.0 0 1 620.34 621.75
  L 611.16 621.75
  A 0.66 0.65 -89.6 0 0 610.51 622.40
  L 610.49 626.25
  Q 610.49 626.75 611.00 626.75
  L 623.26 626.75
  A 2.95 2.94 0.8 0 0 626.21 623.89
  Q 626.36 618.37 626.17 612.82
  C 626.02 608.39 619.33 609.95 616.38 609.49
  Q 615.74 609.40 615.75 608.75
  L 615.76 603.10
  A 0.71 0.71 0.0 0 1 616.46 602.39
  L 625.03 602.19
  Q 625.50 602.18 625.50 601.72
  L 625.50 598.00
  Q 625.50 597.50 625.00 597.50
  L 614.26 597.50
  Q 610.55 597.50 610.51 601.21
  Q 610.47 605.42 610.50 609.65
  C 610.54 616.51 616.02 614.05 620.36 614.63
  A 0.73 0.72 -86.4 0 1 620.99 615.35"
/>
<path stroke="#b0a5be" vector-effect="non-scaling-stroke" d="
  M 210.9597 600.8986
  A 3.06 3.06 0.0 0 0 207.9104 597.8279
  L 197.6905 597.7923
  A 3.06 3.06 0.0 0 0 194.6198 600.8416
  L 194.5403 623.6414
  A 3.06 3.06 0.0 0 0 197.5896 626.7121
  L 207.8095 626.7477
  A 3.06 3.06 0.0 0 0 210.8802 623.6984
  L 210.9597 600.8986"
/>
<path stroke="#b1a9c0" vector-effect="non-scaling-stroke" d="
  M 456.97 621.75
  A 0.47 0.47 0.0 0 1 456.50 621.28
  L 456.50 614.98
  A 0.47 0.47 0.0 0 1 456.97 614.51
  L 464.28 614.49
  A 0.47 0.47 0.0 0 0 464.75 614.02
  L 464.75 610.22
  A 0.47 0.47 0.0 0 0 464.28 609.75
  L 456.97 609.75
  A 0.47 0.47 0.0 0 1 456.50 609.28
  L 456.50 602.72
  A 0.47 0.47 0.0 0 1 456.97 602.25
  L 465.03 602.25
  A 0.47 0.47 0.0 0 0 465.50 601.78
  L 465.50 598.22
  A 0.47 0.47 0.0 0 0 465.03 597.75
  L 451.96 597.75
  A 0.47 0.47 0.0 0 0 451.49 598.22
  L 451.48 626.28
  A 0.47 0.47 0.0 0 0 451.95 626.75
  L 465.78 626.75
  A 0.47 0.47 0.0 0 0 466.25 626.28
  L 466.25 622.22
  A 0.47 0.47 0.0 0 0 465.78 621.75
  L 456.97 621.75"
/>
<path stroke="#b1a9c0" vector-effect="non-scaling-stroke" d="
  M 422.14 493.05
  C 410.66 495.12 412.75 533.83 425.47 527.72
  C 434.68 523.29 434.02 490.91 422.14 493.05"
/>
<path stroke="#b1a9c0" vector-effect="non-scaling-stroke" d="
  M 484.25 492.53
  L 484.25 507.25
  A 0.32 0.32 0.0 0 0 484.57 507.57
  L 491.90 507.57
  A 7.39 6.92 -0.0 0 0 499.29 500.65
  L 499.29 499.13
  A 7.39 6.92 0.0 0 0 491.90 492.21
  L 484.57 492.21
  A 0.32 0.32 0.0 0 0 484.25 492.53"
/>
<path stroke="#b1a9c0" vector-effect="non-scaling-stroke" d="
  M 505.7623 602.8899
  A 0.37 0.37 0.0 0 0 505.3936 602.5186
  L 500.5136 602.5015
  A 0.37 0.37 0.0 0 0 500.1423 602.8702
  L 500.0777 621.3701
  A 0.37 0.37 0.0 0 0 500.4464 621.7414
  L 505.3264 621.7585
  A 0.37 0.37 0.0 0 0 505.6977 621.3898
  L 505.7623 602.8899"
/>
<path stroke="#b1a9c0" vector-effect="non-scaling-stroke" d="
  M 91.65 608.52
  L 89.89 614.92
  Q 89.73 615.50 90.33 615.50
  L 93.32 615.50
  Q 93.91 615.50 93.77 614.93
  L 92.20 608.53
  Q 91.94 607.45 91.65 608.52"
/>
<path stroke="#b1a9c0" vector-effect="non-scaling-stroke" d="
  M 309.9684 602.8600
  A 0.45 0.45 0.0 0 0 309.5153 602.4132
  L 304.6754 602.4470
  A 0.45 0.45 0.0 0 0 304.2286 602.9001
  L 304.2716 609.0600
  A 0.45 0.45 0.0 0 0 304.7247 609.5068
  L 309.5646 609.4730
  A 0.45 0.45 0.0 0 0 310.0114 609.0199
  L 309.9684 602.8600"
/>
<path stroke="#b1a9c0" vector-effect="non-scaling-stroke" d="
  M 383.7620 602.9617
  A 0.42 0.42 0.0 0 0 383.3464 602.5373
  L 378.1667 602.4831
  A 0.42 0.42 0.0 0 0 377.7423 602.8986
  L 377.6780 609.0383
  A 0.42 0.42 0.0 0 0 378.0936 609.4627
  L 383.2733 609.5169
  A 0.42 0.42 0.0 0 0 383.6977 609.1014
  L 383.7620 602.9617"
/>
<path stroke="#b1a9c0" vector-effect="non-scaling-stroke" d="
  M 426.39 608.35
  A 0.31 0.31 0.0 0 0 425.79 608.35
  L 424.12 615.13
  A 0.31 0.31 0.0 0 0 424.42 615.51
  L 427.83 615.45
  A 0.31 0.31 0.0 0 0 428.12 615.06
  L 426.39 608.35"
/>
<path stroke="#b1a9c0" vector-effect="non-scaling-stroke" d="
  M 585.2657 603.1152
  A 0.60 0.60 0.0 0 0 584.6668 602.5141
  L 579.9668 602.5059
  A 0.60 0.60 0.0 0 0 579.3657 603.1049
  L 579.3343 621.1448
  A 0.60 0.60 0.0 0 0 579.9332 621.7459
  L 584.6332 621.7541
  A 0.60 0.60 0.0 0 0 585.2343 621.1551
  L 585.2657 603.1152"
/>
<path stroke="#b0a5be" vector-effect="non-scaling-stroke" d="
  M 205.9059 602.1827
  A 0.27 0.27 0.0 0 0 205.6336 601.9151
  L 199.8338 601.9657
  A 0.27 0.27 0.0 0 0 199.5662 602.2380
  L 199.7341 621.4773
  A 0.27 0.27 0.0 0 0 200.0064 621.7449
  L 205.8062 621.6943
  A 0.27 0.27 0.0 0 0 206.0738 621.4220
  L 205.9059 602.1827"
/>
</g>
<path fill="#ffffff" d="
  M 0.00 0.00
  L 655.00 0.00
  L 655.00 658.00
  L 0.00 658.00
  L 0.00 0.00
  Z
  M 172.96 134.73
  C 174.06 164.84 169.49 198.14 199.55 216.64
  C 204.63 219.76 207.05 225.10 202.75 230.28
  C 201.15 232.20 198.68 233.19 196.42 234.37
  C 174.04 249.46 172.75 279.23 173.49 304.00
  C 172.52 331.11 177.78 369.59 147.34 383.22
  C 143.78 384.81 139.37 386.20 136.67 388.63
  C 126.86 397.47 131.86 413.19 145.01 414.94
  Q 147.19 415.23 158.57 414.36
  C 184.86 412.33 208.42 402.97 219.25 377.62
  C 224.72 364.81 225.39 349.47 225.66 334.74
  Q 225.95 318.77 226.05 302.73
  Q 225.34 286.57 227.48 274.01
  C 228.75 266.58 236.29 248.10 246.77 250.23
  Q 255.53 252.01 255.55 261.77
  Q 255.59 275.61 257.85 289.23
  C 263.00 321.59 281.83 362.95 316.98 372.27
  C 358.96 383.41 390.11 344.15 400.03 308.69
  C 405.07 293.27 406.38 280.89 406.77 262.15
  C 407.02 250.00 420.13 246.17 426.93 255.84
  C 436.80 269.90 435.98 286.70 436.37 304.24
  Q 435.54 332.24 437.42 354.51
  C 441.22 399.35 472.29 413.73 512.99 415.05
  Q 518.61 415.23 522.98 412.99
  C 531.90 408.42 533.74 396.84 526.70 389.66
  C 523.18 386.07 516.29 384.49 512.33 382.41
  C 486.83 369.01 488.87 334.95 488.91 310.69
  Q 489.39 293.87 487.71 277.19
  C 485.88 258.90 480.84 245.72 466.05 234.97
  Q 464.27 233.67 462.22 233.02
  Q 454.54 228.19 458.20 221.12
  C 459.70 218.23 463.52 216.34 466.34 214.52
  C 479.00 206.34 485.92 191.11 487.48 176.74
  Q 489.40 159.04 488.97 138.24
  C 488.94 118.32 487.55 97.94 498.32 80.06
  C 504.27 70.19 511.59 67.73 521.52 63.57
  C 534.21 58.25 534.12 40.45 521.68 35.73
  Q 517.32 34.08 508.16 34.65
  C 492.99 35.58 474.78 39.23 462.41 47.81
  C 443.68 60.81 438.08 80.56 436.89 102.82
  Q 435.97 120.02 436.26 137.22
  C 436.76 164.18 437.60 199.42 406.44 208.72
  C 396.56 211.67 392.87 201.31 389.36 194.83
  Q 381.54 180.44 369.11 169.57
  Q 368.71 169.22 368.37 169.62
  Q 356.77 183.18 338.70 183.08
  A 0.38 0.37 31.9 0 1 338.53 182.37
  L 339.22 182.04
  Q 351.93 178.18 358.78 169.23
  C 375.74 147.08 375.97 113.72 356.63 92.20
  Q 356.27 91.80 356.53 91.33
  C 365.34 75.48 357.65 57.23 340.72 51.89
  A 0.37 0.37 0.0 0 0 340.30 52.44
  C 345.61 60.47 348.50 73.21 344.48 82.56
  A 0.65 0.64 -67.5 0 1 343.65 82.91
  Q 331.48 78.22 319.27 82.79
  A 1.15 1.14 -17.8 0 1 317.77 82.02
  Q 313.39 66.03 322.31 52.29
  Q 322.58 51.88 322.11 52.01
  C 304.61 57.02 297.18 75.39 305.81 91.31
  Q 306.05 91.75 305.72 92.14
  C 290.88 109.38 287.52 133.42 295.35 154.48
  C 296.47 157.50 298.31 160.77 299.94 163.89
  Q 300.20 164.39 299.74 164.71
  Q 290.71 170.95 283.62 179.40
  Q 275.36 189.46 269.58 201.25
  C 263.59 213.46 251.81 209.14 243.66 202.29
  Q 226.76 188.09 226.29 165.00
  Q 225.92 147.12 225.81 129.26
  Q 226.18 110.94 224.13 92.91
  C 219.01 47.94 186.98 34.83 146.20 34.47
  C 129.03 34.32 126.35 58.75 141.48 63.75
  C 173.42 74.29 173.94 106.69 172.96 134.73
  Z
  M 394.71 515.91
  C 396.40 534.94 406.64 552.28 428.82 548.10
  C 459.69 542.30 459.77 480.01 429.76 473.33
  C 402.20 467.19 392.81 494.57 394.71 515.91
  Z
  M 78.27 516.02
  L 78.26 546.64
  A 0.64 0.63 89.1 0 0 78.91 547.28
  Q 90.96 546.92 103.12 546.98
  Q 111.40 547.01 115.23 545.74
  C 128.89 541.17 134.40 524.94 133.91 511.52
  C 135.04 493.47 126.58 473.96 105.76 474.00
  Q 92.16 474.02 78.99 473.99
  A 0.73 0.73 0.0 0 0 78.26 474.72
  L 78.27 516.02
  Z
  M 165.96 519.11
  A 0.60 0.60 0.0 0 1 166.56 518.50
  L 185.15 518.50
  A 0.60 0.60 0.0 0 0 185.75 517.90
  L 185.75 501.10
  A 0.60 0.60 0.0 0 0 185.15 500.50
  L 166.60 500.50
  A 0.60 0.60 0.0 0 1 166.00 499.90
  L 166.01 492.80
  A 0.60 0.60 0.0 0 1 166.61 492.20
  L 192.44 492.28
  A 0.60 0.60 0.0 0 0 193.04 491.68
  L 192.98 474.62
  A 0.60 0.60 0.0 0 0 192.38 474.02
  L 146.35 473.99
  A 0.60 0.60 0.0 0 0 145.75 474.59
  L 145.75 546.65
  A 0.60 0.60 0.0 0 0 146.35 547.25
  L 192.54 547.15
  A 0.60 0.60 0.0 0 0 193.14 546.54
  L 192.94 529.59
  A 0.60 0.60 0.0 0 0 192.34 529.00
  L 166.69 529.00
  A 0.60 0.60 0.0 0 1 166.09 528.41
  L 165.96 519.11
  Z
  M 244.98 474.00
  A 0.35 0.35 0.0 0 0 244.63 474.28
  L 235.10 521.38
  A 0.35 0.35 0.0 0 1 234.41 521.37
  L 225.00 474.28
  A 0.35 0.35 0.0 0 0 224.65 474.00
  L 204.98 474.00
  A 0.35 0.35 0.0 0 0 204.64 474.43
  L 222.34 547.02
  A 0.35 0.35 0.0 0 0 222.69 547.29
  L 246.95 546.97
  A 0.35 0.35 0.0 0 0 247.28 546.71
  L 264.93 474.43
  A 0.35 0.35 0.0 0 0 264.59 474.00
  L 244.98 474.00
  Z
  M 297.46 529.00
  A 0.39 0.39 0.0 0 1 297.07 528.63
  L 296.70 519.18
  A 0.39 0.39 0.0 0 1 297.08 518.77
  L 316.12 518.42
  A 0.39 0.39 0.0 0 0 316.50 518.03
  L 316.50 500.88
  A 0.39 0.39 0.0 0 0 316.11 500.49
  L 297.15 500.38
  A 0.39 0.39 0.0 0 1 296.76 499.99
  L 296.75 492.64
  A 0.39 0.39 0.0 0 1 297.14 492.25
  L 323.28 492.25
  A 0.39 0.39 0.0 0 0 323.67 491.87
  L 323.97 474.43
  A 0.39 0.39 0.0 0 0 323.58 474.03
  L 277.00 473.98
  A 0.39 0.39 0.0 0 0 276.61 474.37
  L 276.54 546.92
  A 0.39 0.39 0.0 0 0 276.93 547.31
  L 323.58 546.93
  A 0.39 0.39 0.0 0 0 323.96 546.54
  L 323.67 529.38
  A 0.39 0.39 0.0 0 0 323.28 529.00
  L 297.46 529.00
  Z
  M 335.50 546.72
  A 0.37 0.37 0.0 0 0 335.87 547.09
  L 382.38 546.98
  A 0.37 0.37 0.0 0 0 382.75 546.61
  L 382.75 529.32
  A 0.37 0.37 0.0 0 0 382.38 528.95
  L 356.12 529.11
  A 0.37 0.37 0.0 0 1 355.75 528.74
  L 355.75 474.37
  A 0.37 0.37 0.0 0 0 355.38 474.00
  L 335.87 474.00
  A 0.37 0.37 0.0 0 0 335.50 474.37
  L 335.50 546.72
  Z
  M 464.61 547.13
  L 483.78 546.97
  Q 484.28 546.97 484.28 546.47
  L 484.18 526.23
  A 0.55 0.55 0.0 0 1 484.77 525.68
  C 492.85 526.16 502.55 525.83 508.99 519.96
  C 522.82 507.38 519.54 482.65 501.53 475.70
  Q 497.71 474.23 490.25 474.09
  Q 477.31 473.86 464.72 474.05
  Q 463.90 474.06 463.90 474.88
  L 463.84 546.36
  Q 463.84 547.14 464.61 547.13
  Z
  M 555.38 527.51
  L 563.87 546.58
  Q 564.03 546.94 564.42 546.95
  L 584.04 547.12
  A 0.35 0.35 0.0 0 0 584.36 546.61
  L 565.21 509.34
  A 1.32 1.29 -44.3 0 1 565.24 508.10
  L 584.24 474.77
  A 0.52 0.51 14.8 0 0 583.79 474.00
  L 564.52 474.00
  Q 564.04 474.00 563.84 474.44
  C 561.34 479.91 557.06 486.28 555.50 491.90
  A 0.38 0.38 0.0 0 1 554.79 491.97
  L 546.36 474.40
  Q 546.17 474.00 545.73 474.00
  L 526.47 474.00
  A 0.50 0.50 0.0 0 0 526.03 474.75
  L 544.39 506.96
  A 3.75 3.72 43.9 0 1 544.47 510.51
  L 525.93 546.51
  A 0.42 0.41 14.2 0 0 526.30 547.12
  L 545.62 547.30
  A 0.71 0.71 0.0 0 0 546.29 546.87
  L 554.69 527.52
  A 0.38 0.38 0.0 0 1 555.38 527.51
  Z
  M 44.18 614.45
  A 0.31 0.31 0.0 0 1 43.57 614.44
  L 41.07 597.76
  A 0.31 0.31 0.0 0 0 40.76 597.50
  L 35.82 597.50
  A 0.31 0.31 0.0 0 0 35.52 597.86
  L 39.96 626.49
  A 0.31 0.31 0.0 0 0 40.27 626.75
  L 46.98 626.75
  A 0.31 0.31 0.0 0 0 47.28 626.49
  L 50.08 609.74
  A 0.31 0.31 0.0 0 1 50.69 609.74
  L 53.40 626.49
  A 0.31 0.31 0.0 0 0 53.70 626.75
  L 60.58 626.75
  A 0.31 0.31 0.0 0 0 60.89 626.49
  L 65.35 597.86
  A 0.31 0.31 0.0 0 0 65.05 597.50
  L 60.17 597.50
  A 0.31 0.31 0.0 0 0 59.86 597.76
  L 57.30 614.44
  A 0.31 0.31 0.0 0 1 56.69 614.45
  L 53.64 597.39
  A 0.31 0.31 0.0 0 0 53.31 597.13
  L 47.41 597.59
  A 0.31 0.31 0.0 0 0 47.13 597.85
  L 44.18 614.45
  Z
  M 109.62 616.04
  L 105.28 598.23
  A 0.78 0.77 3.0 0 0 104.79 597.69
  Q 102.50 596.88 100.18 597.58
  Q 99.59 597.76 99.74 598.35
  L 106.50 626.09
  Q 106.66 626.75 107.34 626.75
  L 112.59 626.75
  Q 113.18 626.75 113.32 626.18
  L 120.16 598.14
  Q 120.31 597.50 119.66 597.50
  L 115.38 597.50
  Q 114.73 597.50 114.58 598.13
  L 110.27 616.04
  Q 109.94 617.38 109.62 616.04
  Z
  M 511.2495 600.8945
  A 3.45 3.45 0.0 0 0 507.8056 597.4385
  L 498.1056 597.4216
  A 3.45 3.45 0.0 0 0 494.6496 600.8655
  L 494.6105 623.2655
  A 3.45 3.45 0.0 0 0 498.0544 626.7215
  L 507.7544 626.7384
  A 3.45 3.45 0.0 0 0 511.2104 623.2945
  L 511.2495 600.8945
  Z
  M 597.66 612.51
  L 603.18 626.08
  Q 603.41 626.65 604.01 626.70
  L 607.96 627.05
  A 0.87 0.87 0.0 0 0 608.90 626.26
  C 609.72 616.91 608.62 607.63 609.25 598.30
  A 1.05 1.04 -0.7 0 0 608.10 597.19
  L 604.69 597.52
  Q 604.09 597.58 604.08 598.18
  L 603.75 611.48
  A 0.29 0.29 0.0 0 1 603.20 611.58
  L 597.78 598.11
  Q 597.53 597.50 596.87 597.50
  L 592.47 597.50
  Q 591.94 597.50 591.94 598.03
  L 592.00 626.12
  Q 592.00 626.75 592.62 626.75
  L 596.64 626.75
  Q 597.28 626.75 597.28 626.11
  L 597.19 612.60
  A 0.24 0.24 0.0 0 1 597.66 612.51
  Z
  M 71.25 602.80
  A 0.54 0.54 0.0 0 1 71.79 602.26
  L 79.71 602.25
  A 0.54 0.54 0.0 0 0 80.25 601.71
  L 80.25 598.04
  A 0.54 0.54 0.0 0 0 79.71 597.50
  L 66.80 597.50
  A 0.54 0.54 0.0 0 0 66.26 598.03
  L 65.95 626.22
  A 0.54 0.54 0.0 0 0 66.49 626.77
  L 80.50 626.72
  A 0.54 0.54 0.0 0 0 81.04 626.12
  L 80.62 622.23
  A 0.54 0.54 0.0 0 0 80.08 621.75
  L 71.76 621.75
  A 0.54 0.54 0.0 0 1 71.22 621.20
  L 71.31 615.03
  A 0.54 0.54 0.0 0 1 71.85 614.50
  L 78.70 614.50
  A 0.54 0.54 0.0 0 0 79.24 613.96
  L 79.27 610.29
  A 0.54 0.54 0.0 0 0 78.73 609.75
  L 71.79 609.74
  A 0.54 0.54 0.0 0 1 71.25 609.20
  L 71.25 602.80
  Z
  M 81.59 626.21
  A 0.33 0.33 0.0 0 0 81.89 626.62
  L 86.85 626.80
  A 0.33 0.33 0.0 0 0 87.18 626.54
  L 88.52 620.66
  A 0.33 0.33 0.0 0 1 88.84 620.41
  L 94.95 620.35
  A 0.33 0.33 0.0 0 1 95.28 620.61
  L 96.53 626.40
  A 0.33 0.33 0.0 0 0 96.83 626.66
  L 102.01 626.91
  A 0.33 0.33 0.0 0 0 102.34 626.50
  L 95.07 597.75
  A 0.33 0.33 0.0 0 0 94.75 597.50
  L 88.90 597.50
  A 0.33 0.33 0.0 0 0 88.58 597.75
  L 81.59 626.21
  Z
  M 127.77 598.03
  A 0.51 0.51 0.0 0 0 127.26 597.52
  L 123.02 597.52
  A 0.51 0.51 0.0 0 0 122.51 598.03
  L 122.51 626.23
  A 0.51 0.51 0.0 0 0 123.02 626.74
  L 127.26 626.74
  A 0.51 0.51 0.0 0 0 127.77 626.23
  L 127.77 598.03
  Z
  M 135.74 626.75
  A 0.34 0.34 0.0 0 0 136.08 626.41
  L 135.97 612.68
  A 0.34 0.34 0.0 0 1 136.63 612.55
  L 142.23 626.55
  A 0.34 0.34 0.0 0 0 142.55 626.77
  L 147.69 626.70
  A 0.34 0.34 0.0 0 0 148.03 626.36
  L 148.03 597.90
  A 0.34 0.34 0.0 0 0 147.69 597.56
  L 143.09 597.50
  A 0.34 0.34 0.0 0 0 142.75 597.84
  L 142.74 611.22
  A 0.34 0.34 0.0 0 1 142.09 611.35
  L 136.55 597.70
  A 0.34 0.34 0.0 0 0 136.23 597.49
  L 131.09 597.51
  A 0.34 0.34 0.0 0 0 130.75 597.85
  L 130.75 626.41
  A 0.34 0.34 0.0 0 0 131.09 626.75
  L 135.74 626.75
  Z
  M 160.10 621.74
  L 155.40 621.74
  A 0.65 0.65 0.0 0 1 154.75 621.09
  L 154.75 602.93
  Q 154.75 602.36 155.32 602.36
  L 164.78 602.20
  Q 165.25 602.19 165.25 601.72
  L 165.25 598.00
  Q 165.25 597.50 164.75 597.50
  L 152.89 597.50
  A 3.37 3.36 -89.9 0 0 149.53 600.86
  L 149.49 623.43
  A 3.40 3.40 0.0 0 0 152.92 626.84
  L 165.37 626.71
  A 0.83 0.82 -0.7 0 0 166.19 625.88
  L 165.98 610.24
  Q 165.97 609.75 165.49 609.75
  L 158.18 609.75
  A 0.61 0.61 0.0 0 0 157.57 610.32
  L 157.34 613.84
  A 0.57 0.56 -85.2 0 0 157.84 614.44
  L 160.15 614.71
  Q 160.75 614.79 160.75 615.39
  L 160.75 621.09
  Q 160.75 621.74 160.10 621.74
  Z
  M 181.63 602.25
  Q 182.75 602.25 182.74 603.38
  L 182.42 626.08
  Q 182.41 626.75 183.08 626.75
  L 187.73 626.75
  Q 188.21 626.75 188.20 626.27
  L 187.93 602.92
  Q 187.92 602.25 188.58 602.25
  L 191.94 602.25
  Q 192.81 602.25 193.07 601.42
  Q 194.18 597.79 191.54 597.66
  Q 184.79 597.32 178.02 597.71
  Q 177.50 597.74 177.50 598.26
  L 177.50 601.75
  Q 177.50 602.25 178.00 602.25
  L 181.63 602.25
  Z
  M 218.16 602.25
  L 227.31 602.25
  Q 227.89 602.25 227.94 601.68
  L 228.29 598.20
  A 0.61 0.60 -87.4 0 0 227.69 597.54
  L 215.02 597.54
  A 2.44 2.44 0.0 0 0 212.58 599.97
  L 212.47 623.73
  Q 212.45 626.75 215.48 626.75
  L 228.00 626.75
  A 0.80 0.80 0.0 0 0 228.80 625.94
  L 228.72 610.40
  A 0.64 0.64 0.0 0 0 228.08 609.76
  L 221.30 609.75
  Q 220.34 609.74 220.34 610.70
  L 220.34 613.68
  Q 220.34 614.29 220.94 614.39
  L 223.21 614.75
  Q 223.81 614.85 223.78 615.46
  L 223.52 621.13
  Q 223.50 621.75 222.87 621.75
  L 218.00 621.75
  Q 217.50 621.75 217.50 621.25
  L 217.50 602.91
  A 0.66 0.66 0.0 0 1 218.16 602.25
  Z
  M 235.51 615.05
  A 0.54 0.54 0.0 0 1 236.05 614.51
  L 242.96 614.50
  A 0.54 0.54 0.0 0 0 243.50 613.96
  L 243.50 610.29
  A 0.54 0.54 0.0 0 0 242.96 609.75
  L 236.04 609.75
  A 0.54 0.54 0.0 0 1 235.50 609.21
  L 235.50 602.79
  A 0.54 0.54 0.0 0 1 236.04 602.25
  L 243.63 602.25
  A 0.54 0.54 0.0 0 0 244.17 601.75
  L 244.44 598.12
  A 0.54 0.54 0.0 0 0 243.90 597.54
  L 230.79 597.56
  A 0.54 0.54 0.0 0 0 230.25 598.10
  L 230.25 626.21
  A 0.54 0.54 0.0 0 0 230.79 626.75
  L 244.71 626.75
  A 0.54 0.54 0.0 0 0 245.25 626.21
  L 245.25 622.29
  A 0.54 0.54 0.0 0 0 244.71 621.75
  L 236.03 621.75
  A 0.54 0.54 0.0 0 1 235.49 621.21
  L 235.51 615.05
  Z
  M 251.65 602.25
  A 0.37 0.37 0.0 0 1 252.02 602.63
  L 251.64 626.79
  A 0.37 0.37 0.0 0 0 252.04 627.16
  L 256.99 626.67
  A 0.37 0.37 0.0 0 0 257.33 626.30
  L 257.05 602.62
  A 0.37 0.37 0.0 0 1 257.42 602.25
  L 261.87 602.25
  A 0.37 0.37 0.0 0 0 262.24 601.88
  L 262.28 597.85
  A 0.37 0.37 0.0 0 0 261.90 597.47
  L 247.12 597.62
  A 0.37 0.37 0.0 0 0 246.75 597.99
  L 246.75 601.88
  A 0.37 0.37 0.0 0 0 247.12 602.25
  L 251.65 602.25
  Z
  M 275.29 614.57
  A 0.51 0.51 0.0 0 1 275.80 615.09
  L 275.64 626.24
  A 0.51 0.51 0.0 0 0 276.15 626.76
  L 280.32 626.74
  A 0.51 0.51 0.0 0 0 280.83 626.23
  L 280.75 598.10
  A 0.51 0.51 0.0 0 0 280.24 597.60
  L 276.25 597.63
  A 0.51 0.51 0.0 0 0 275.75 598.14
  L 275.75 609.30
  A 0.51 0.51 0.0 0 1 275.22 609.81
  L 269.16 609.60
  A 0.51 0.51 0.0 0 1 268.67 609.08
  L 268.95 597.96
  A 0.51 0.51 0.0 0 0 268.41 597.44
  L 264.26 597.66
  A 0.51 0.51 0.0 0 0 263.78 598.17
  L 263.70 626.25
  A 0.51 0.51 0.0 0 0 264.21 626.76
  L 268.60 626.74
  A 0.51 0.51 0.0 0 0 269.10 626.23
  L 268.96 615.12
  A 0.51 0.51 0.0 0 1 269.46 614.61
  L 275.29 614.57
  Z
  M 287.80 615.15
  A 0.59 0.59 0.0 0 1 288.38 614.58
  L 295.17 614.46
  A 0.59 0.59 0.0 0 0 295.75 613.87
  L 295.75 610.37
  A 0.59 0.59 0.0 0 0 295.17 609.78
  L 288.25 609.70
  A 0.59 0.59 0.0 0 1 287.66 609.10
  L 287.71 602.91
  A 0.59 0.59 0.0 0 1 288.29 602.32
  L 295.85 602.22
  A 0.59 0.59 0.0 0 0 296.43 601.68
  L 296.76 598.14
  A 0.59 0.59 0.0 0 0 296.17 597.50
  L 283.09 597.50
  A 0.59 0.59 0.0 0 0 282.50 598.09
  L 282.50 626.16
  A 0.59 0.59 0.0 0 0 283.09 626.75
  L 296.91 626.75
  A 0.59 0.59 0.0 0 0 297.50 626.16
  L 297.50 622.40
  A 0.59 0.59 0.0 0 0 296.92 621.81
  L 288.21 621.72
  A 0.59 0.59 0.0 0 1 287.63 621.11
  L 287.80 615.15
  Z
  M 304.24 615.52
  A 0.35 0.35 0.0 0 1 304.91 615.37
  L 310.03 626.25
  Q 310.29 626.80 310.91 626.78
  L 315.70 626.62
  Q 316.38 626.59 316.09 625.98
  L 310.84 615.19
  Q 310.61 614.71 311.14 614.72
  C 313.93 614.73 315.28 613.46 315.27 610.55
  Q 315.26 605.50 315.23 600.51
  A 3.03 3.03 0.0 0 0 312.20 597.50
  L 299.58 597.50
  Q 298.91 597.50 298.91 598.17
  L 298.69 625.91
  Q 298.68 626.63 299.40 626.66
  L 303.60 626.80
  Q 304.27 626.82 304.27 626.15
  L 304.24 615.52
  Z
  M 333.51 597.81
  A 0.29 0.29 0.0 0 0 333.22 597.52
  L 328.52 597.52
  A 0.29 0.29 0.0 0 0 328.23 597.81
  L 328.23 626.45
  A 0.29 0.29 0.0 0 0 328.52 626.74
  L 333.22 626.74
  A 0.29 0.29 0.0 0 0 333.51 626.45
  L 333.51 597.81
  Z
  M 342.72 612.63
  L 348.00 626.31
  Q 348.17 626.74 348.64 626.75
  L 353.98 626.76
  Q 354.39 626.76 354.38 626.35
  Q 354.13 614.89 354.26 603.45
  C 354.28 601.90 353.43 599.63 354.58 597.69
  Q 354.70 597.49 354.47 597.50
  L 349.41 597.51
  A 0.64 0.64 0.0 0 0 348.77 598.15
  L 348.72 611.75
  A 0.38 0.38 0.0 0 1 347.98 611.87
  Q 345.60 604.74 342.42 597.95
  Q 342.22 597.50 341.72 597.50
  L 337.37 597.50
  Q 336.74 597.50 336.74 598.13
  L 336.74 626.12
  Q 336.74 626.75 337.37 626.75
  L 341.62 626.75
  Q 342.25 626.75 342.25 626.12
  L 342.25 612.72
  A 0.24 0.24 0.0 0 1 342.72 612.63
  Z
  M 365.92 602.90
  A 0.59 0.59 0.0 0 1 366.52 602.31
  L 370.45 602.36
  A 0.59 0.59 0.0 0 0 371.05 601.81
  L 371.30 598.13
  A 0.59 0.59 0.0 0 0 370.71 597.50
  L 356.07 597.50
  A 0.59 0.59 0.0 0 0 355.48 598.03
  L 355.09 601.60
  A 0.59 0.59 0.0 0 0 355.68 602.25
  L 360.22 602.25
  A 0.59 0.59 0.0 0 1 360.81 602.84
  L 360.62 626.16
  A 0.59 0.59 0.0 0 0 361.21 626.75
  L 365.47 626.75
  A 0.59 0.59 0.0 0 0 366.06 626.16
  L 365.92 602.90
  Z
  M 378.57 615.41
  L 383.67 626.30
  Q 383.88 626.75 384.37 626.75
  L 389.26 626.75
  A 0.52 0.52 0.0 0 0 389.73 626.00
  L 384.49 615.24
  Q 384.23 614.70 384.83 614.71
  C 390.81 614.79 389.05 605.42 389.06 601.50
  Q 389.08 597.59 384.99 597.56
  Q 376.37 597.52 373.22 597.48
  Q 372.50 597.47 372.50 598.19
  L 372.50 626.12
  Q 372.50 626.82 373.19 626.79
  L 377.36 626.64
  Q 377.84 626.62 377.83 626.15
  L 377.71 615.60
  A 0.45 0.45 0.0 0 1 378.57 615.41
  Z
  M 397.2454 598.0252
  A 0.50 0.50 0.0 0 0 396.7445 597.5261
  L 392.2245 597.5340
  A 0.50 0.50 0.0 0 0 391.7254 598.0348
  L 391.7746 626.2548
  A 0.50 0.50 0.0 0 0 392.2755 626.7539
  L 396.7955 626.7460
  A 0.50 0.50 0.0 0 0 397.2946 626.2452
  L 397.2454 598.0252
  Z
  M 406.32 602.35
  L 414.03 602.20
  Q 414.50 602.20 414.50 601.72
  L 414.50 598.00
  Q 414.50 597.50 414.00 597.50
  L 403.75 597.50
  A 3.25 3.25 0.0 0 0 400.50 600.75
  L 400.50 623.63
  A 3.13 3.13 0.0 0 0 403.64 626.76
  L 420.51 626.69
  A 1.13 1.11 -83.5 0 0 421.60 625.81
  L 422.65 621.09
  Q 422.78 620.50 423.39 620.50
  L 428.71 620.50
  Q 429.42 620.50 429.56 621.20
  L 430.63 626.33
  Q 430.72 626.76 431.17 626.76
  L 435.69 626.72
  Q 436.43 626.71 436.25 625.99
  L 429.45 598.04
  Q 429.32 597.50 428.77 597.50
  L 423.42 597.50
  A 0.73 0.72 6.5 0 0 422.71 598.06
  L 415.98 625.89
  Q 415.84 626.48 415.57 625.94
  Q 414.88 624.56 415.52 623.17
  A 0.94 0.93 12.7 0 0 414.68 621.85
  L 406.47 621.71
  Q 405.75 621.69 405.75 620.97
  L 405.75 602.93
  Q 405.75 602.36 406.32 602.35
  Z
  M 444.11 626.75
  A 0.72 0.72 0.0 0 0 444.83 626.02
  L 444.48 602.98
  A 0.72 0.72 0.0 0 1 445.20 602.25
  L 449.01 602.25
  A 0.72 0.72 0.0 0 0 449.73 601.53
  L 449.76 598.22
  A 0.72 0.72 0.0 0 0 449.04 597.50
  L 434.64 597.50
  A 0.72 0.72 0.0 0 0 433.93 598.28
  L 434.20 601.59
  A 0.72 0.72 0.0 0 0 434.92 602.25
  L 438.67 602.25
  A 0.72 0.72 0.0 0 1 439.39 602.98
  L 439.19 626.02
  A 0.72 0.72 0.0 0 0 439.91 626.75
  L 444.11 626.75
  Z
  M 488.27 615.30
  L 488.12 621.16
  A 0.60 0.60 0.0 0 1 487.52 621.75
  L 478.75 621.75
  A 1.04 1.04 0.0 0 0 477.71 622.73
  L 477.49 626.10
  A 0.62 0.62 0.0 0 0 478.11 626.76
  L 490.25 626.73
  A 3.00 2.99 -89.9 0 0 493.24 623.74
  Q 493.25 619.11 493.32 613.74
  C 493.39 608.19 486.91 610.03 483.46 609.46
  Q 483.00 609.39 482.99 608.92
  L 482.87 602.91
  A 0.49 0.48 -1.8 0 1 483.34 602.42
  L 491.86 602.18
  Q 492.39 602.16 492.44 601.63
  L 492.73 598.12
  A 0.62 0.61 -87.9 0 0 492.11 597.45
  L 480.08 597.62
  A 2.30 2.30 0.0 0 0 477.81 599.91
  L 477.72 611.84
  A 2.50 2.50 0.0 0 0 480.08 614.35
  L 487.80 614.79
  Q 488.28 614.82 488.27 615.30
  Z
  M 512.48 626.15
  A 0.60 0.60 0.0 0 0 513.08 626.75
  L 526.91 626.75
  A 0.60 0.60 0.0 0 0 527.51 626.15
  L 527.48 622.43
  A 0.60 0.60 0.0 0 0 526.89 621.83
  L 518.31 621.71
  A 0.60 0.60 0.0 0 1 517.72 621.11
  L 517.81 598.10
  A 0.60 0.60 0.0 0 0 517.21 597.50
  L 513.18 597.50
  A 0.60 0.60 0.0 0 0 512.58 598.10
  L 512.48 626.15
  Z
  M 539.64 621.68
  L 534.90 621.78
  Q 534.25 621.79 534.25 621.15
  L 534.25 598.00
  Q 534.25 597.50 533.75 597.50
  L 529.72 597.50
  A 0.72 0.72 0.0 0 0 529.00 598.22
  Q 528.99 610.20 529.00 622.17
  C 529.00 625.25 529.50 626.54 532.76 626.64
  Q 540.00 626.86 543.98 626.48
  A 0.97 0.96 -82.6 0 0 544.79 625.85
  Q 545.49 623.88 545.48 621.74
  Q 545.43 610.05 545.27 598.30
  Q 545.26 597.76 544.72 597.76
  L 541.01 597.74
  Q 540.44 597.73 540.44 598.30
  L 540.20 621.11
  Q 540.20 621.67 539.64 621.68
  Z
  M 551.61 602.25
  A 0.53 0.53 0.0 0 1 552.14 602.79
  L 551.91 626.14
  A 0.53 0.53 0.0 0 0 552.39 626.68
  L 556.94 627.04
  A 0.53 0.53 0.0 0 0 557.51 626.51
  L 557.48 602.78
  A 0.53 0.53 0.0 0 1 558.01 602.25
  L 561.97 602.25
  A 0.53 0.53 0.0 0 0 562.50 601.72
  L 562.50 597.96
  A 0.53 0.53 0.0 0 0 561.96 597.43
  L 546.97 597.66
  A 0.53 0.53 0.0 0 0 546.45 598.25
  L 546.84 601.78
  A 0.53 0.53 0.0 0 0 547.37 602.25
  L 551.61 602.25
  Z
  M 570.7550 597.8154
  A 0.30 0.30 0.0 0 0 570.4545 597.5159
  L 565.7545 597.5241
  A 0.30 0.30 0.0 0 0 565.4550 597.8246
  L 565.5050 626.4446
  A 0.30 0.30 0.0 0 0 565.8055 626.7441
  L 570.5055 626.7359
  A 0.30 0.30 0.0 0 0 570.8050 626.4354
  L 570.7550 597.8154
  Z
  M 590.5096 600.9344
  A 3.41 3.41 0.0 0 0 587.1055 597.5184
  L 577.4655 597.5016
  A 3.41 3.41 0.0 0 0 574.0496 600.9057
  L 574.0104 623.3256
  A 3.41 3.41 0.0 0 0 577.4145 626.7416
  L 587.0545 626.7584
  A 3.41 3.41 0.0 0 0 590.4704 623.3543
  L 590.5096 600.9344
  Z
  M 620.99 615.35
  L 621.00 621.09
  A 0.66 0.66 0.0 0 1 620.34 621.75
  L 611.16 621.75
  A 0.66 0.65 -89.6 0 0 610.51 622.40
  L 610.49 626.25
  Q 610.49 626.75 611.00 626.75
  L 623.26 626.75
  A 2.95 2.94 0.8 0 0 626.21 623.89
  Q 626.36 618.37 626.17 612.82
  C 626.02 608.39 619.33 609.95 616.38 609.49
  Q 615.74 609.40 615.75 608.75
  L 615.76 603.10
  A 0.71 0.71 0.0 0 1 616.46 602.39
  L 625.03 602.19
  Q 625.50 602.18 625.50 601.72
  L 625.50 598.00
  Q 625.50 597.50 625.00 597.50
  L 614.26 597.50
  Q 610.55 597.50 610.51 601.21
  Q 610.47 605.42 610.50 609.65
  C 610.54 616.51 616.02 614.05 620.36 614.63
  A 0.73 0.72 -86.4 0 1 620.99 615.35
  Z
  M 210.9597 600.8986
  A 3.06 3.06 0.0 0 0 207.9104 597.8279
  L 197.6905 597.7923
  A 3.06 3.06 0.0 0 0 194.6198 600.8416
  L 194.5403 623.6414
  A 3.06 3.06 0.0 0 0 197.5896 626.7121
  L 207.8095 626.7477
  A 3.06 3.06 0.0 0 0 210.8802 623.6984
  L 210.9597 600.8986
  Z
  M 456.97 621.75
  A 0.47 0.47 0.0 0 1 456.50 621.28
  L 456.50 614.98
  A 0.47 0.47 0.0 0 1 456.97 614.51
  L 464.28 614.49
  A 0.47 0.47 0.0 0 0 464.75 614.02
  L 464.75 610.22
  A 0.47 0.47 0.0 0 0 464.28 609.75
  L 456.97 609.75
  A 0.47 0.47 0.0 0 1 456.50 609.28
  L 456.50 602.72
  A 0.47 0.47 0.0 0 1 456.97 602.25
  L 465.03 602.25
  A 0.47 0.47 0.0 0 0 465.50 601.78
  L 465.50 598.22
  A 0.47 0.47 0.0 0 0 465.03 597.75
  L 451.96 597.75
  A 0.47 0.47 0.0 0 0 451.49 598.22
  L 451.48 626.28
  A 0.47 0.47 0.0 0 0 451.95 626.75
  L 465.78 626.75
  A 0.47 0.47 0.0 0 0 466.25 626.28
  L 466.25 622.22
  A 0.47 0.47 0.0 0 0 465.78 621.75
  L 456.97 621.75
  Z"
/>
<path fill="#5f306a" d="
  M 225.81 129.26
  L 225.76 139.49
  Q 225.75 141.53 225.43 139.52
  L 225.03 137.02
  Q 224.97 136.65 224.71 136.92
  L 224.17 137.46
  A 1.01 1.00 34.0 0 1 223.06 137.67
  Q 219.82 136.29 216.55 137.31
  A 0.66 0.60 -42.1 0 1 216.20 137.31
  Q 213.88 136.59 208.00 136.49
  Q 189.62 136.17 177.75 137.56
  Q 176.11 137.75 175.68 138.44
  Q 175.58 138.62 175.55 138.42
  L 175.48 137.97
  A 0.30 0.30 0.0 0 0 174.89 137.92
  Q 174.82 138.13 174.75 138.33
  A 0.24 0.24 0.0 0 1 174.28 138.26
  L 174.14 136.33
  Q 174.13 136.22 174.02 136.24
  L 173.55 136.30
  Q 173.31 136.34 173.32 136.09
  Q 173.35 135.19 172.96 134.73
  C 173.94 106.69 173.42 74.29 141.48 63.75
  C 126.35 58.75 129.03 34.32 146.20 34.47
  C 186.98 34.83 219.01 47.94 224.13 92.91
  Q 226.18 110.94 225.81 129.26
  Z"
/>
<path fill="#5f306a" d="
  M 488.97 138.24
  Q 488.64 138.31 488.40 138.21
  Q 488.16 138.12 488.07 137.81
  Q 488.01 137.58 488.00 137.30
  Q 487.98 136.89 487.61 137.07
  Q 487.10 137.34 486.50 137.27
  C 481.99 136.74 475.73 135.90 471.28 136.77
  Q 470.81 136.86 470.36 136.73
  C 467.93 136.05 465.71 136.89 463.50 136.59
  Q 455.12 135.47 446.73 136.53
  C 444.11 136.86 441.47 136.54 438.79 136.72
  Q 438.56 136.73 438.52 136.95
  Q 438.48 137.10 438.36 137.22
  Q 438.07 137.53 437.77 137.22
  Q 436.66 136.08 436.26 137.22
  Q 435.97 120.02 436.89 102.82
  C 438.08 80.56 443.68 60.81 462.41 47.81
  C 474.78 39.23 492.99 35.58 508.16 34.65
  Q 517.32 34.08 521.68 35.73
  C 534.12 40.45 534.21 58.25 521.52 63.57
  C 511.59 67.73 504.27 70.19 498.32 80.06
  C 487.55 97.94 488.94 118.32 488.97 138.24
  Z"
/>
<path fill="#5f306a" d="
  M 339.22 182.04
  Q 338.00 181.66 336.61 181.99
  Q 336.11 182.11 335.88 182.57
  Q 334.37 185.66 330.84 184.73
  Q 330.36 184.60 329.87 184.72
  Q 323.81 186.30 317.62 185.93
  C 311.38 185.55 305.19 185.42 298.95 185.14
  C 294.75 184.95 289.78 186.30 285.24 184.98
  A 2.39 2.39 0.0 0 1 284.25 180.95
  Q 284.68 180.54 283.62 179.40
  Q 290.71 170.95 299.74 164.71
  Q 300.20 164.39 299.94 163.89
  C 298.31 160.77 296.47 157.50 295.35 154.48
  C 287.52 133.42 290.88 109.38 305.72 92.14
  Q 306.05 91.75 305.81 91.31
  C 297.18 75.39 304.61 57.02 322.11 52.01
  Q 322.58 51.88 322.31 52.29
  Q 313.39 66.03 317.77 82.02
  A 1.15 1.14 -17.8 0 0 319.27 82.79
  Q 331.48 78.22 343.65 82.91
  A 0.65 0.64 -67.5 0 0 344.48 82.56
  C 348.50 73.21 345.61 60.47 340.30 52.44
  A 0.37 0.37 0.0 0 1 340.72 51.89
  C 357.65 57.23 365.34 75.48 356.53 91.33
  Q 356.27 91.80 356.63 92.20
  C 375.97 113.72 375.74 147.08 358.78 169.23
  Q 351.93 178.18 339.22 182.04
  Z"
/>
<path fill="#614a7c" d="
  M 225.81 129.26
  Q 225.92 147.12 226.29 165.00
  Q 226.76 188.09 243.66 202.29
  C 251.81 209.14 263.59 213.46 269.58 201.25
  Q 275.36 189.46 283.62 179.40
  Q 284.68 180.54 284.25 180.95
  A 2.39 2.39 0.0 0 0 285.24 184.98
  C 289.78 186.30 294.75 184.95 298.95 185.14
  C 305.19 185.42 311.38 185.55 317.62 185.93
  Q 323.81 186.30 329.87 184.72
  Q 330.36 184.60 330.84 184.73
  Q 334.37 185.66 335.88 182.57
  Q 336.11 182.11 336.61 181.99
  Q 338.00 181.66 339.22 182.04
  L 338.53 182.37
  A 0.38 0.37 31.9 0 0 338.70 183.08
  Q 356.77 183.18 368.37 169.62
  Q 368.71 169.22 369.11 169.57
  Q 381.54 180.44 389.36 194.83
  C 392.87 201.31 396.56 211.67 406.44 208.72
  C 437.60 199.42 436.76 164.18 436.26 137.22
  Q 436.66 136.08 437.77 137.22
  Q 438.07 137.53 438.36 137.22
  Q 438.48 137.10 438.52 136.95
  Q 438.56 136.73 438.79 136.72
  C 441.47 136.54 444.11 136.86 446.73 136.53
  Q 455.12 135.47 463.50 136.59
  C 465.71 136.89 467.93 136.05 470.36 136.73
  Q 470.81 136.86 471.28 136.77
  C 475.73 135.90 481.99 136.74 486.50 137.27
  Q 487.10 137.34 487.61 137.07
  Q 487.98 136.89 488.00 137.30
  Q 488.01 137.58 488.07 137.81
  Q 488.16 138.12 488.40 138.21
  Q 488.64 138.31 488.97 138.24
  Q 489.40 159.04 487.48 176.74
  C 485.92 191.11 479.00 206.34 466.34 214.52
  C 463.52 216.34 459.70 218.23 458.20 221.12
  Q 454.54 228.19 462.22 233.02
  Q 461.50 232.88 461.66 233.80
  Q 461.77 234.38 462.34 234.53
  Q 462.46 234.57 462.42 234.69
  Q 462.37 234.83 462.25 234.88
  Q 462.12 234.95 461.92 234.85
  Q 460.71 234.29 459.51 233.63
  Q 459.25 233.48 459.25 233.78
  L 459.25 234.21
  Q 459.25 234.65 458.87 234.87
  C 453.94 237.76 446.62 237.05 440.96 237.74
  A 1.76 1.68 -34.2 0 1 440.00 237.58
  C 437.71 236.49 435.32 237.52 433.60 237.51
  Q 430.63 237.49 427.64 237.50
  A 1.22 1.19 -23.8 0 1 426.84 237.20
  Q 426.48 236.89 425.99 236.86
  Q 415.50 236.33 405.01 236.86
  C 399.59 237.14 395.16 239.65 389.52 237.66
  Q 389.04 237.49 388.56 237.69
  Q 387.66 238.06 387.01 237.98
  C 381.62 237.28 375.37 237.96 370.99 237.87
  C 351.70 237.48 332.93 238.66 314.00 237.77
  Q 307.83 237.47 296.34 238.02
  Q 291.95 238.23 285.79 237.84
  Q 280.50 237.50 275.20 237.67
  C 273.32 237.73 271.82 236.80 269.75 236.98
  Q 266.68 237.26 265.80 237.16
  Q 256.45 236.13 247.05 236.23
  C 241.37 236.29 232.78 236.68 227.10 238.32
  Q 224.94 238.94 222.76 238.42
  Q 222.27 238.31 221.78 238.42
  C 218.86 239.11 215.03 237.33 212.74 238.31
  Q 212.24 238.53 211.74 238.28
  Q 208.44 236.69 205.28 238.51
  A 1.48 1.47 -56.3 0 1 204.36 238.70
  Q 200.15 238.18 198.04 234.64
  Q 197.76 234.17 197.37 234.56
  L 196.89 235.04
  Q 196.58 235.35 196.51 234.92
  L 196.42 234.37
  C 198.68 233.19 201.15 232.20 202.75 230.28
  C 207.05 225.10 204.63 219.76 199.55 216.64
  C 169.49 198.14 174.06 164.84 172.96 134.73
  Q 173.35 135.19 173.32 136.09
  Q 173.31 136.34 173.55 136.30
  L 174.02 136.24
  Q 174.13 136.22 174.14 136.33
  L 174.28 138.26
  A 0.24 0.24 0.0 0 0 174.75 138.33
  Q 174.82 138.13 174.89 137.92
  A 0.30 0.30 0.0 0 1 175.48 137.97
  L 175.55 138.42
  Q 175.58 138.62 175.68 138.44
  Q 176.11 137.75 177.75 137.56
  Q 189.62 136.17 208.00 136.49
  Q 213.88 136.59 216.20 137.31
  A 0.66 0.60 -42.1 0 0 216.55 137.31
  Q 219.82 136.29 223.06 137.67
  A 1.01 1.00 34.0 0 0 224.17 137.46
  L 224.71 136.92
  Q 224.97 136.65 225.03 137.02
  L 225.43 139.52
  Q 225.75 141.53 225.76 139.49
  L 225.81 129.26
  Z"
/>
<path fill="#625985" d="
  M 462.22 233.02
  Q 464.27 233.67 466.05 234.97
  C 480.84 245.72 485.88 258.90 487.71 277.19
  Q 489.39 293.87 488.91 310.69
  Q 485.95 306.09 479.97 306.71
  C 472.84 307.45 466.28 306.06 459.18 306.41
  C 453.75 306.68 443.27 307.76 438.56 305.04
  Q 438.09 304.77 437.95 305.29
  L 437.47 307.03
  A 0.33 0.33 0.0 0 1 436.83 307.00
  L 436.37 304.24
  C 435.98 286.70 436.80 269.90 426.93 255.84
  C 420.13 246.17 407.02 250.00 406.77 262.15
  C 406.38 280.89 405.07 293.27 400.03 308.69
  L 399.64 308.94
  Q 399.19 309.23 399.09 308.71
  C 398.77 307.00 396.92 306.64 395.35 306.97
  Q 391.42 307.79 387.50 306.29
  Q 387.01 306.10 386.59 306.42
  Q 385.52 307.23 384.17 306.65
  Q 392.03 283.71 391.19 259.12
  A 0.31 0.31 0.0 0 0 390.57 259.08
  Q 388.37 273.13 383.07 287.19
  Q 382.22 285.52 381.48 285.52
  Q 379.57 285.53 377.75 286.26
  A 1.14 1.13 47.7 0 1 376.77 286.21
  Q 375.89 285.73 374.95 285.41
  Q 372.96 284.73 372.59 286.01
  Q 372.46 286.47 372.10 286.79
  C 370.56 288.12 368.97 287.46 367.58 287.70
  C 365.18 288.12 362.98 288.48 360.44 288.40
  C 355.16 288.24 349.74 289.02 344.52 288.45
  C 340.56 288.02 338.10 288.69 334.94 288.70
  C 330.45 288.72 326.01 289.17 321.54 289.06
  C 312.10 288.81 303.36 289.26 294.25 289.01
  C 292.58 288.96 290.48 288.29 288.38 288.73
  A 1.07 1.04 57.2 0 1 287.52 288.53
  C 284.37 286.13 280.53 288.02 276.74 286.57
  Q 276.27 286.39 275.78 286.54
  C 272.80 287.44 271.02 287.66 267.68 286.80
  Q 265.16 286.15 262.50 286.25
  Q 262.00 286.27 262.00 286.77
  L 262.00 287.22
  Q 262.00 287.82 261.44 288.01
  L 257.85 289.23
  Q 255.59 275.61 255.55 261.77
  Q 255.53 252.01 246.77 250.23
  C 236.29 248.10 228.75 266.58 227.48 274.01
  Q 225.34 286.57 226.05 302.73
  L 225.76 308.63
  Q 225.76 308.69 225.71 308.69
  Q 225.68 308.69 225.65 308.69
  Q 225.64 308.69 225.62 308.49
  L 225.07 303.17
  Q 225.01 302.65 224.74 303.10
  Q 224.60 303.34 224.36 303.44
  Q 224.11 303.54 223.66 303.38
  Q 217.90 301.29 211.75 301.55
  Q 210.44 301.61 209.18 301.11
  Q 208.77 300.95 208.34 301.05
  L 202.82 302.31
  Q 202.28 302.43 201.82 302.13
  Q 199.93 300.91 197.93 301.96
  A 1.26 1.26 0.0 0 1 196.99 302.06
  Q 195.00 301.48 193.02 302.02
  A 1.78 1.73 45.8 0 1 192.00 301.99
  C 188.52 300.85 185.85 302.29 182.79 302.20
  Q 179.11 302.10 175.40 302.12
  Q 174.75 302.12 174.75 301.47
  L 174.75 300.85
  A 0.23 0.23 0.0 0 0 174.29 300.84
  Q 174.22 302.64 173.49 304.00
  C 172.75 279.23 174.04 249.46 196.42 234.37
  L 196.51 234.92
  Q 196.58 235.35 196.89 235.04
  L 197.37 234.56
  Q 197.76 234.17 198.04 234.64
  Q 200.15 238.18 204.36 238.70
  A 1.48 1.47 -56.3 0 0 205.28 238.51
  Q 208.44 236.69 211.74 238.28
  Q 212.24 238.53 212.74 238.31
  C 215.03 237.33 218.86 239.11 221.78 238.42
  Q 222.27 238.31 222.76 238.42
  Q 224.94 238.94 227.10 238.32
  C 232.78 236.68 241.37 236.29 247.05 236.23
  Q 256.45 236.13 265.80 237.16
  Q 266.68 237.26 269.75 236.98
  C 271.82 236.80 273.32 237.73 275.20 237.67
  Q 280.50 237.50 285.79 237.84
  Q 291.95 238.23 296.34 238.02
  Q 307.83 237.47 314.00 237.77
  C 332.93 238.66 351.70 237.48 370.99 237.87
  C 375.37 237.96 381.62 237.28 387.01 237.98
  Q 387.66 238.06 388.56 237.69
  Q 389.04 237.49 389.52 237.66
  C 395.16 239.65 399.59 237.14 405.01 236.86
  Q 415.50 236.33 425.99 236.86
  Q 426.48 236.89 426.84 237.20
  A 1.22 1.19 -23.8 0 0 427.64 237.50
  Q 430.63 237.49 433.60 237.51
  C 435.32 237.52 437.71 236.49 440.00 237.58
  A 1.76 1.68 -34.2 0 0 440.96 237.74
  C 446.62 237.05 453.94 237.76 458.87 234.87
  Q 459.25 234.65 459.25 234.21
  L 459.25 233.78
  Q 459.25 233.48 459.51 233.63
  Q 460.71 234.29 461.92 234.85
  Q 462.12 234.95 462.25 234.88
  Q 462.37 234.83 462.42 234.69
  Q 462.46 234.57 462.34 234.53
  Q 461.77 234.38 461.66 233.80
  Q 461.50 232.88 462.22 233.02
  Z"
/>
<path fill="#ffffff" d="
  M 384.17 306.65
  C 375.85 330.58 356.95 355.77 329.26 357.25
  Q 315.57 357.99 303.60 350.27
  Q 302.85 349.80 303.74 349.86
  Q 312.81 350.49 315.24 350.19
  C 349.24 345.92 371.93 317.33 383.07 287.19
  Q 388.37 273.13 390.57 259.08
  A 0.31 0.31 0.0 0 1 391.19 259.12
  Q 392.03 283.71 384.17 306.65
  Z"
/>
<path fill="#63658d" d="
  M 383.07 287.19
  C 371.93 317.33 349.24 345.92 315.24 350.19
  Q 312.81 350.49 303.74 349.86
  Q 302.85 349.80 303.60 350.27
  Q 315.57 357.99 329.26 357.25
  C 356.95 355.77 375.85 330.58 384.17 306.65
  Q 385.52 307.23 386.59 306.42
  Q 387.01 306.10 387.50 306.29
  Q 391.42 307.79 395.35 306.97
  C 396.92 306.64 398.77 307.00 399.09 308.71
  Q 399.19 309.23 399.64 308.94
  L 400.03 308.69
  C 390.11 344.15 358.96 383.41 316.98 372.27
  C 281.83 362.95 263.00 321.59 257.85 289.23
  L 261.44 288.01
  Q 262.00 287.82 262.00 287.22
  L 262.00 286.77
  Q 262.00 286.27 262.50 286.25
  Q 265.16 286.15 267.68 286.80
  C 271.02 287.66 272.80 287.44 275.78 286.54
  Q 276.27 286.39 276.74 286.57
  C 280.53 288.02 284.37 286.13 287.52 288.53
  A 1.07 1.04 57.2 0 0 288.38 288.73
  C 290.48 288.29 292.58 288.96 294.25 289.01
  C 303.36 289.26 312.10 288.81 321.54 289.06
  C 326.01 289.17 330.45 288.72 334.94 288.70
  C 338.10 288.69 340.56 288.02 344.52 288.45
  C 349.74 289.02 355.16 288.24 360.44 288.40
  C 362.98 288.48 365.18 288.12 367.58 287.70
  C 368.97 287.46 370.56 288.12 372.10 286.79
  Q 372.46 286.47 372.59 286.01
  Q 372.96 284.73 374.95 285.41
  Q 375.89 285.73 376.77 286.21
  A 1.14 1.13 47.7 0 0 377.75 286.26
  Q 379.57 285.53 381.48 285.52
  Q 382.22 285.52 383.07 287.19
  Z"
/>
<path fill="#646d93" d="
  M 226.05 302.73
  Q 225.95 318.77 225.66 334.74
  C 225.39 349.47 224.72 364.81 219.25 377.62
  C 208.42 402.97 184.86 412.33 158.57 414.36
  Q 147.19 415.23 145.01 414.94
  C 131.86 413.19 126.86 397.47 136.67 388.63
  C 139.37 386.20 143.78 384.81 147.34 383.22
  C 177.78 369.59 172.52 331.11 173.49 304.00
  Q 174.22 302.64 174.29 300.84
  A 0.23 0.23 0.0 0 1 174.75 300.85
  L 174.75 301.47
  Q 174.75 302.12 175.40 302.12
  Q 179.11 302.10 182.79 302.20
  C 185.85 302.29 188.52 300.85 192.00 301.99
  A 1.78 1.73 45.8 0 0 193.02 302.02
  Q 195.00 301.48 196.99 302.06
  A 1.26 1.26 0.0 0 0 197.93 301.96
  Q 199.93 300.91 201.82 302.13
  Q 202.28 302.43 202.82 302.31
  L 208.34 301.05
  Q 208.77 300.95 209.18 301.11
  Q 210.44 301.61 211.75 301.55
  Q 217.90 301.29 223.66 303.38
  Q 224.11 303.54 224.36 303.44
  Q 224.60 303.34 224.74 303.10
  Q 225.01 302.65 225.07 303.17
  L 225.62 308.49
  Q 225.64 308.69 225.65 308.69
  Q 225.68 308.69 225.71 308.69
  Q 225.76 308.69 225.76 308.63
  L 226.05 302.73
  Z"
/>
<path fill="#646d93" d="
  M 436.37 304.24
  L 436.83 307.00
  A 0.33 0.33 0.0 0 0 437.47 307.03
  L 437.95 305.29
  Q 438.09 304.77 438.56 305.04
  C 443.27 307.76 453.75 306.68 459.18 306.41
  C 466.28 306.06 472.84 307.45 479.97 306.71
  Q 485.95 306.09 488.91 310.69
  C 488.87 334.95 486.83 369.01 512.33 382.41
  C 516.29 384.49 523.18 386.07 526.70 389.66
  C 533.74 396.84 531.90 408.42 522.98 412.99
  Q 518.61 415.23 512.99 415.05
  C 472.29 413.73 441.22 399.35 437.42 354.51
  Q 435.54 332.24 436.37 304.24
  Z"
/>
<path fill="#625281" d="
  M 428.82 548.10
  C 406.64 552.28 396.40 534.94 394.71 515.91
  C 392.81 494.57 402.20 467.19 429.76 473.33
  C 459.77 480.01 459.69 542.30 428.82 548.10
  Z
  M 422.14 493.05
  C 410.66 495.12 412.75 533.83 425.47 527.72
  C 434.68 523.29 434.02 490.91 422.14 493.05
  Z"
/>
<path fill="#625985" d="
  M 133.91 511.52
  Q 133.73 510.62 133.03 510.56
  Q 132.75 510.54 132.75 510.81
  L 132.75 511.22
  Q 132.75 511.68 132.35 511.44
  L 131.97 511.21
  Q 131.64 511.02 131.27 511.04
  Q 122.19 511.51 113.70 509.67
  C 113.41 504.04 112.65 492.65 105.25 492.25
  Q 103.66 492.17 99.01 492.28
  Q 98.50 492.30 98.50 492.80
  L 98.48 516.40
  Q 98.38 515.19 95.88 516.06
  A 1.87 1.86 -47.0 0 1 94.81 516.10
  Q 87.05 514.16 79.10 514.62
  Q 79.00 514.62 79.00 514.53
  Q 79.00 514.39 79.01 514.25
  A 0.16 0.16 0.0 0 0 78.70 514.20
  L 78.27 516.02
  L 78.26 474.72
  A 0.73 0.73 0.0 0 1 78.99 473.99
  Q 92.16 474.02 105.76 474.00
  C 126.58 473.96 135.04 493.47 133.91 511.52
  Z"
/>
<path fill="#625281" d="
  M 165.96 519.11
  L 166.09 528.41
  A 0.60 0.60 0.0 0 0 166.69 529.00
  L 192.34 529.00
  A 0.60 0.60 0.0 0 1 192.94 529.59
  L 193.14 546.54
  A 0.60 0.60 0.0 0 1 192.54 547.15
  L 146.35 547.25
  A 0.60 0.60 0.0 0 1 145.75 546.65
  L 145.75 474.59
  A 0.60 0.60 0.0 0 1 146.35 473.99
  L 192.38 474.02
  A 0.60 0.60 0.0 0 1 192.98 474.62
  L 193.04 491.68
  A 0.60 0.60 0.0 0 1 192.44 492.28
  L 166.61 492.20
  A 0.60 0.60 0.0 0 0 166.01 492.80
  L 166.00 499.90
  A 0.60 0.60 0.0 0 0 166.60 500.50
  L 185.15 500.50
  A 0.60 0.60 0.0 0 1 185.75 501.10
  L 185.75 517.90
  A 0.60 0.60 0.0 0 1 185.15 518.50
  L 166.56 518.50
  A 0.60 0.60 0.0 0 0 165.96 519.11
  Z"
/>
<path fill="#625281" d="
  M 244.98 474.00
  L 264.59 474.00
  A 0.35 0.35 0.0 0 1 264.93 474.43
  L 247.28 546.71
  A 0.35 0.35 0.0 0 1 246.95 546.97
  L 222.69 547.29
  A 0.35 0.35 0.0 0 1 222.34 547.02
  L 204.64 474.43
  A 0.35 0.35 0.0 0 1 204.98 474.00
  L 224.65 474.00
  A 0.35 0.35 0.0 0 1 225.00 474.28
  L 234.41 521.37
  A 0.35 0.35 0.0 0 0 235.10 521.38
  L 244.63 474.28
  A 0.35 0.35 0.0 0 1 244.98 474.00
  Z"
/>
<path fill="#625281" d="
  M 297.46 529.00
  L 323.28 529.00
  A 0.39 0.39 0.0 0 1 323.67 529.38
  L 323.96 546.54
  A 0.39 0.39 0.0 0 1 323.58 546.93
  L 276.93 547.31
  A 0.39 0.39 0.0 0 1 276.54 546.92
  L 276.61 474.37
  A 0.39 0.39 0.0 0 1 277.00 473.98
  L 323.58 474.03
  A 0.39 0.39 0.0 0 1 323.97 474.43
  L 323.67 491.87
  A 0.39 0.39 0.0 0 1 323.28 492.25
  L 297.14 492.25
  A 0.39 0.39 0.0 0 0 296.75 492.64
  L 296.76 499.99
  A 0.39 0.39 0.0 0 0 297.15 500.38
  L 316.11 500.49
  A 0.39 0.39 0.0 0 1 316.50 500.88
  L 316.50 518.03
  A 0.39 0.39 0.0 0 1 316.12 518.42
  L 297.08 518.77
  A 0.39 0.39 0.0 0 0 296.70 519.18
  L 297.07 528.63
  A 0.39 0.39 0.0 0 0 297.46 529.00
  Z"
/>
<path fill="#614a7c" d="
  M 335.50 546.72
  L 335.50 474.37
  A 0.37 0.37 0.0 0 1 335.87 474.00
  L 355.38 474.00
  A 0.37 0.37 0.0 0 1 355.75 474.37
  L 355.75 528.74
  A 0.37 0.37 0.0 0 0 356.12 529.11
  L 382.38 528.95
  A 0.37 0.37 0.0 0 1 382.75 529.32
  L 382.75 546.61
  A 0.37 0.37 0.0 0 1 382.38 546.98
  L 335.87 547.09
  A 0.37 0.37 0.0 0 1 335.50 546.72
  Z"
/>
<path fill="#625281" d="
  M 464.61 547.13
  Q 463.84 547.14 463.84 546.36
  L 463.90 474.88
  Q 463.90 474.06 464.72 474.05
  Q 477.31 473.86 490.25 474.09
  Q 497.71 474.23 501.53 475.70
  C 519.54 482.65 522.82 507.38 508.99 519.96
  C 502.55 525.83 492.85 526.16 484.77 525.68
  A 0.55 0.55 0.0 0 0 484.18 526.23
  L 484.28 546.47
  Q 484.28 546.97 483.78 546.97
  L 464.61 547.13
  Z
  M 484.25 492.53
  L 484.25 507.25
  A 0.32 0.32 0.0 0 0 484.57 507.57
  L 491.90 507.57
  A 7.39 6.92 -0.0 0 0 499.29 500.65
  L 499.29 499.13
  A 7.39 6.92 0.0 0 0 491.90 492.21
  L 484.57 492.21
  A 0.32 0.32 0.0 0 0 484.25 492.53
  Z"
/>
<path fill="#625281" d="
  M 555.38 527.51
  A 0.38 0.38 0.0 0 0 554.69 527.52
  L 546.29 546.87
  A 0.71 0.71 0.0 0 1 545.62 547.30
  L 526.30 547.12
  A 0.42 0.41 14.2 0 1 525.93 546.51
  L 544.47 510.51
  A 3.75 3.72 43.9 0 0 544.39 506.96
  L 526.03 474.75
  A 0.50 0.50 0.0 0 1 526.47 474.00
  L 545.73 474.00
  Q 546.17 474.00 546.36 474.40
  L 554.79 491.97
  A 0.38 0.38 0.0 0 0 555.50 491.90
  C 557.06 486.28 561.34 479.91 563.84 474.44
  Q 564.04 474.00 564.52 474.00
  L 583.79 474.00
  A 0.52 0.51 14.8 0 1 584.24 474.77
  L 565.24 508.10
  A 1.32 1.29 -44.3 0 0 565.21 509.34
  L 584.36 546.61
  A 0.35 0.35 0.0 0 1 584.04 547.12
  L 564.42 546.95
  Q 564.03 546.94 563.87 546.58
  L 555.38 527.51
  Z"
/>
<path fill="#ffffff" d="
  M 113.70 509.67
  Q 113.70 517.39 112.43 521.50
  Q 109.42 531.27 98.93 528.63
  Q 98.48 528.52 98.48 528.05
  L 98.48 516.40
  L 98.50 492.80
  Q 98.50 492.30 99.01 492.28
  Q 103.66 492.17 105.25 492.25
  C 112.65 492.65 113.41 504.04 113.70 509.67
  Z"
/>
<path fill="#ffffff" d="
  M 484.25 492.53
  A 0.32 0.32 0.0 0 1 484.57 492.21
  L 491.90 492.21
  A 7.39 6.92 0.0 0 1 499.29 499.13
  L 499.29 500.65
  A 7.39 6.92 0.0 0 1 491.90 507.57
  L 484.57 507.57
  A 0.32 0.32 0.0 0 1 484.25 507.25
  L 484.25 492.53
  Z"
/>
<path fill="#ffffff" d="
  M 425.47 527.72
  C 412.75 533.83 410.66 495.12 422.14 493.05
  C 434.02 490.91 434.68 523.29 425.47 527.72
  Z"
/>
<path fill="#614a7c" d="
  M 113.70 509.67
  Q 122.19 511.51 131.27 511.04
  Q 131.64 511.02 131.97 511.21
  L 132.35 511.44
  Q 132.75 511.68 132.75 511.22
  L 132.75 510.81
  Q 132.75 510.54 133.03 510.56
  Q 133.73 510.62 133.91 511.52
  C 134.40 524.94 128.89 541.17 115.23 545.74
  Q 111.40 547.01 103.12 546.98
  Q 90.96 546.92 78.91 547.28
  A 0.64 0.63 89.1 0 1 78.26 546.64
  L 78.27 516.02
  L 78.70 514.20
  A 0.16 0.16 0.0 0 1 79.01 514.25
  Q 79.00 514.39 79.00 514.53
  Q 79.00 514.62 79.10 514.62
  Q 87.05 514.16 94.81 516.10
  A 1.87 1.86 -47.0 0 0 95.88 516.06
  Q 98.38 515.19 98.48 516.40
  L 98.48 528.05
  Q 98.48 528.52 98.93 528.63
  Q 109.42 531.27 112.43 521.50
  Q 113.70 517.39 113.70 509.67
  Z"
/>
<path fill="#625281" d="
  M 44.18 614.45
  L 47.13 597.85
  A 0.31 0.31 0.0 0 1 47.41 597.59
  L 53.31 597.13
  A 0.31 0.31 0.0 0 1 53.64 597.39
  L 56.69 614.45
  A 0.31 0.31 0.0 0 0 57.30 614.44
  L 59.86 597.76
  A 0.31 0.31 0.0 0 1 60.17 597.50
  L 65.05 597.50
  A 0.31 0.31 0.0 0 1 65.35 597.86
  L 60.89 626.49
  A 0.31 0.31 0.0 0 1 60.58 626.75
  L 53.70 626.75
  A 0.31 0.31 0.0 0 1 53.40 626.49
  L 50.69 609.74
  A 0.31 0.31 0.0 0 0 50.08 609.74
  L 47.28 626.49
  A 0.31 0.31 0.0 0 1 46.98 626.75
  L 40.27 626.75
  A 0.31 0.31 0.0 0 1 39.96 626.49
  L 35.52 597.86
  A 0.31 0.31 0.0 0 1 35.82 597.50
  L 40.76 597.50
  A 0.31 0.31 0.0 0 1 41.07 597.76
  L 43.57 614.44
  A 0.31 0.31 0.0 0 0 44.18 614.45
  Z"
/>
<path fill="#625281" d="
  M 110.27 616.04
  L 114.58 598.13
  Q 114.73 597.50 115.38 597.50
  L 119.66 597.50
  Q 120.31 597.50 120.16 598.14
  L 113.32 626.18
  Q 113.18 626.75 112.59 626.75
  L 107.34 626.75
  Q 106.66 626.75 106.50 626.09
  L 99.74 598.35
  Q 99.59 597.76 100.18 597.58
  Q 102.50 596.88 104.79 597.69
  A 0.78 0.77 3.0 0 1 105.28 598.23
  L 109.62 616.04
  Q 109.94 617.38 110.27 616.04
  Z"
/>
<path fill="#625281" d="
  M 511.2104 623.2945
  A 3.45 3.45 0.0 0 1 507.7544 626.7384
  L 498.0544 626.7215
  A 3.45 3.45 0.0 0 1 494.6105 623.2655
  L 494.6496 600.8655
  A 3.45 3.45 0.0 0 1 498.1056 597.4216
  L 507.8056 597.4385
  A 3.45 3.45 0.0 0 1 511.2495 600.8945
  L 511.2104 623.2945
  Z
  M 505.7623 602.8899
  A 0.37 0.37 0.0 0 0 505.3936 602.5186
  L 500.5136 602.5015
  A 0.37 0.37 0.0 0 0 500.1423 602.8702
  L 500.0777 621.3701
  A 0.37 0.37 0.0 0 0 500.4464 621.7414
  L 505.3264 621.7585
  A 0.37 0.37 0.0 0 0 505.6977 621.3898
  L 505.7623 602.8899
  Z"
/>
<path fill="#625281" d="
  M 597.66 612.51
  A 0.24 0.24 0.0 0 0 597.19 612.60
  L 597.28 626.11
  Q 597.28 626.75 596.64 626.75
  L 592.62 626.75
  Q 592.00 626.75 592.00 626.12
  L 591.94 598.03
  Q 591.94 597.50 592.47 597.50
  L 596.87 597.50
  Q 597.53 597.50 597.78 598.11
  L 603.20 611.58
  A 0.29 0.29 0.0 0 0 603.75 611.48
  L 604.08 598.18
  Q 604.09 597.58 604.69 597.52
  L 608.10 597.19
  A 1.05 1.04 -0.7 0 1 609.25 598.30
  C 608.62 607.63 609.72 616.91 608.90 626.26
  A 0.87 0.87 0.0 0 1 607.96 627.05
  L 604.01 626.70
  Q 603.41 626.65 603.18 626.08
  L 597.66 612.51
  Z"
/>
<path fill="#625281" d="
  M 71.25 602.80
  L 71.25 609.20
  A 0.54 0.54 0.0 0 0 71.79 609.74
  L 78.73 609.75
  A 0.54 0.54 0.0 0 1 79.27 610.29
  L 79.24 613.96
  A 0.54 0.54 0.0 0 1 78.70 614.50
  L 71.85 614.50
  A 0.54 0.54 0.0 0 0 71.31 615.03
  L 71.22 621.20
  A 0.54 0.54 0.0 0 0 71.76 621.75
  L 80.08 621.75
  A 0.54 0.54 0.0 0 1 80.62 622.23
  L 81.04 626.12
  A 0.54 0.54 0.0 0 1 80.50 626.72
  L 66.49 626.77
  A 0.54 0.54 0.0 0 1 65.95 626.22
  L 66.26 598.03
  A 0.54 0.54 0.0 0 1 66.80 597.50
  L 79.71 597.50
  A 0.54 0.54 0.0 0 1 80.25 598.04
  L 80.25 601.71
  A 0.54 0.54 0.0 0 1 79.71 602.25
  L 71.79 602.26
  A 0.54 0.54 0.0 0 0 71.25 602.80
  Z"
/>
<path fill="#625281" d="
  M 81.59 626.21
  L 88.58 597.75
  A 0.33 0.33 0.0 0 1 88.90 597.50
  L 94.75 597.50
  A 0.33 0.33 0.0 0 1 95.07 597.75
  L 102.34 626.50
  A 0.33 0.33 0.0 0 1 102.01 626.91
  L 96.83 626.66
  A 0.33 0.33 0.0 0 1 96.53 626.40
  L 95.28 620.61
  A 0.33 0.33 0.0 0 0 94.95 620.35
  L 88.84 620.41
  A 0.33 0.33 0.0 0 0 88.52 620.66
  L 87.18 626.54
  A 0.33 0.33 0.0 0 1 86.85 626.80
  L 81.89 626.62
  A 0.33 0.33 0.0 0 1 81.59 626.21
  Z
  M 91.65 608.52
  L 89.89 614.92
  Q 89.73 615.50 90.33 615.50
  L 93.32 615.50
  Q 93.91 615.50 93.77 614.93
  L 92.20 608.53
  Q 91.94 607.45 91.65 608.52
  Z"
/>
<rect fill="#625281" x="122.51" y="597.52" width="5.26" height="29.22" rx="0.51"/>
<path fill="#625281" d="
  M 135.74 626.75
  L 131.09 626.75
  A 0.34 0.34 0.0 0 1 130.75 626.41
  L 130.75 597.85
  A 0.34 0.34 0.0 0 1 131.09 597.51
  L 136.23 597.49
  A 0.34 0.34 0.0 0 1 136.55 597.70
  L 142.09 611.35
  A 0.34 0.34 0.0 0 0 142.74 611.22
  L 142.75 597.84
  A 0.34 0.34 0.0 0 1 143.09 597.50
  L 147.69 597.56
  A 0.34 0.34 0.0 0 1 148.03 597.90
  L 148.03 626.36
  A 0.34 0.34 0.0 0 1 147.69 626.70
  L 142.55 626.77
  A 0.34 0.34 0.0 0 1 142.23 626.55
  L 136.63 612.55
  A 0.34 0.34 0.0 0 0 135.97 612.68
  L 136.08 626.41
  A 0.34 0.34 0.0 0 1 135.74 626.75
  Z"
/>
<path fill="#625281" d="
  M 160.75 621.09
  L 160.75 615.39
  Q 160.75 614.79 160.15 614.71
  L 157.84 614.44
  A 0.57 0.56 -85.2 0 1 157.34 613.84
  L 157.57 610.32
  A 0.61 0.61 0.0 0 1 158.18 609.75
  L 165.49 609.75
  Q 165.97 609.75 165.98 610.24
  L 166.19 625.88
  A 0.83 0.82 -0.7 0 1 165.37 626.71
  L 152.92 626.84
  A 3.40 3.40 0.0 0 1 149.49 623.43
  L 149.53 600.86
  A 3.37 3.36 -89.9 0 1 152.89 597.50
  L 164.75 597.50
  Q 165.25 597.50 165.25 598.00
  L 165.25 601.72
  Q 165.25 602.19 164.78 602.20
  L 155.32 602.36
  Q 154.75 602.36 154.75 602.93
  L 154.75 621.09
  A 0.65 0.65 0.0 0 0 155.40 621.74
  L 160.10 621.74
  Q 160.75 621.74 160.75 621.09
  Z"
/>
<path fill="#625985" d="
  M 181.63 602.25
  L 178.00 602.25
  Q 177.50 602.25 177.50 601.75
  L 177.50 598.26
  Q 177.50 597.74 178.02 597.71
  Q 184.79 597.32 191.54 597.66
  Q 194.18 597.79 193.07 601.42
  Q 192.81 602.25 191.94 602.25
  L 188.58 602.25
  Q 187.92 602.25 187.93 602.92
  L 188.20 626.27
  Q 188.21 626.75 187.73 626.75
  L 183.08 626.75
  Q 182.41 626.75 182.42 626.08
  L 182.74 603.38
  Q 182.75 602.25 181.63 602.25
  Z"
/>
<path fill="#614a7c" d="
  M 217.50 602.91
  L 217.50 621.25
  Q 217.50 621.75 218.00 621.75
  L 222.87 621.75
  Q 223.50 621.75 223.52 621.13
  L 223.78 615.46
  Q 223.81 614.85 223.21 614.75
  L 220.94 614.39
  Q 220.34 614.29 220.34 613.68
  L 220.34 610.70
  Q 220.34 609.74 221.30 609.75
  L 228.08 609.76
  A 0.64 0.64 0.0 0 1 228.72 610.40
  L 228.80 625.94
  A 0.80 0.80 0.0 0 1 228.00 626.75
  L 215.48 626.75
  Q 212.45 626.75 212.47 623.73
  L 212.58 599.97
  A 2.44 2.44 0.0 0 1 215.02 597.54
  L 227.69 597.54
  A 0.61 0.60 -87.4 0 1 228.29 598.20
  L 227.94 601.68
  Q 227.89 602.25 227.31 602.25
  L 218.16 602.25
  A 0.66 0.66 0.0 0 0 217.50 602.91
  Z"
/>
<path fill="#625281" d="
  M 235.51 615.05
  L 235.49 621.21
  A 0.54 0.54 0.0 0 0 236.03 621.75
  L 244.71 621.75
  A 0.54 0.54 0.0 0 1 245.25 622.29
  L 245.25 626.21
  A 0.54 0.54 0.0 0 1 244.71 626.75
  L 230.79 626.75
  A 0.54 0.54 0.0 0 1 230.25 626.21
  L 230.25 598.10
  A 0.54 0.54 0.0 0 1 230.79 597.56
  L 243.90 597.54
  A 0.54 0.54 0.0 0 1 244.44 598.12
  L 244.17 601.75
  A 0.54 0.54 0.0 0 1 243.63 602.25
  L 236.04 602.25
  A 0.54 0.54 0.0 0 0 235.50 602.79
  L 235.50 609.21
  A 0.54 0.54 0.0 0 0 236.04 609.75
  L 242.96 609.75
  A 0.54 0.54 0.0 0 1 243.50 610.29
  L 243.50 613.96
  A 0.54 0.54 0.0 0 1 242.96 614.50
  L 236.05 614.51
  A 0.54 0.54 0.0 0 0 235.51 615.05
  Z"
/>
<path fill="#625281" d="
  M 251.65 602.25
  L 247.12 602.25
  A 0.37 0.37 0.0 0 1 246.75 601.88
  L 246.75 597.99
  A 0.37 0.37 0.0 0 1 247.12 597.62
  L 261.90 597.47
  A 0.37 0.37 0.0 0 1 262.28 597.85
  L 262.24 601.88
  A 0.37 0.37 0.0 0 1 261.87 602.25
  L 257.42 602.25
  A 0.37 0.37 0.0 0 0 257.05 602.62
  L 257.33 626.30
  A 0.37 0.37 0.0 0 1 256.99 626.67
  L 252.04 627.16
  A 0.37 0.37 0.0 0 1 251.64 626.79
  L 252.02 602.63
  A 0.37 0.37 0.0 0 0 251.65 602.25
  Z"
/>
<path fill="#625281" d="
  M 275.29 614.57
  L 269.46 614.61
  A 0.51 0.51 0.0 0 0 268.96 615.12
  L 269.10 626.23
  A 0.51 0.51 0.0 0 1 268.60 626.74
  L 264.21 626.76
  A 0.51 0.51 0.0 0 1 263.70 626.25
  L 263.78 598.17
  A 0.51 0.51 0.0 0 1 264.26 597.66
  L 268.41 597.44
  A 0.51 0.51 0.0 0 1 268.95 597.96
  L 268.67 609.08
  A 0.51 0.51 0.0 0 0 269.16 609.60
  L 275.22 609.81
  A 0.51 0.51 0.0 0 0 275.75 609.30
  L 275.75 598.14
  A 0.51 0.51 0.0 0 1 276.25 597.63
  L 280.24 597.60
  A 0.51 0.51 0.0 0 1 280.75 598.10
  L 280.83 626.23
  A 0.51 0.51 0.0 0 1 280.32 626.74
  L 276.15 626.76
  A 0.51 0.51 0.0 0 1 275.64 626.24
  L 275.80 615.09
  A 0.51 0.51 0.0 0 0 275.29 614.57
  Z"
/>
<path fill="#625281" d="
  M 287.80 615.15
  L 287.63 621.11
  A 0.59 0.59 0.0 0 0 288.21 621.72
  L 296.92 621.81
  A 0.59 0.59 0.0 0 1 297.50 622.40
  L 297.50 626.16
  A 0.59 0.59 0.0 0 1 296.91 626.75
  L 283.09 626.75
  A 0.59 0.59 0.0 0 1 282.50 626.16
  L 282.50 598.09
  A 0.59 0.59 0.0 0 1 283.09 597.50
  L 296.17 597.50
  A 0.59 0.59 0.0 0 1 296.76 598.14
  L 296.43 601.68
  A 0.59 0.59 0.0 0 1 295.85 602.22
  L 288.29 602.32
  A 0.59 0.59 0.0 0 0 287.71 602.91
  L 287.66 609.10
  A 0.59 0.59 0.0 0 0 288.25 609.70
  L 295.17 609.78
  A 0.59 0.59 0.0 0 1 295.75 610.37
  L 295.75 613.87
  A 0.59 0.59 0.0 0 1 295.17 614.46
  L 288.38 614.58
  A 0.59 0.59 0.0 0 0 287.80 615.15
  Z"
/>
<path fill="#625281" d="
  M 304.24 615.52
  L 304.27 626.15
  Q 304.27 626.82 303.60 626.80
  L 299.40 626.66
  Q 298.68 626.63 298.69 625.91
  L 298.91 598.17
  Q 298.91 597.50 299.58 597.50
  L 312.20 597.50
  A 3.03 3.03 0.0 0 1 315.23 600.51
  Q 315.26 605.50 315.27 610.55
  C 315.28 613.46 313.93 614.73 311.14 614.72
  Q 310.61 614.71 310.84 615.19
  L 316.09 625.98
  Q 316.38 626.59 315.70 626.62
  L 310.91 626.78
  Q 310.29 626.80 310.03 626.25
  L 304.91 615.37
  A 0.35 0.35 0.0 0 0 304.24 615.52
  Z
  M 309.9684 602.8600
  A 0.45 0.45 0.0 0 0 309.5153 602.4132
  L 304.6754 602.4470
  A 0.45 0.45 0.0 0 0 304.2286 602.9001
  L 304.2716 609.0600
  A 0.45 0.45 0.0 0 0 304.7247 609.5068
  L 309.5646 609.4730
  A 0.45 0.45 0.0 0 0 310.0114 609.0199
  L 309.9684 602.8600
  Z"
/>
<rect fill="#625281" x="328.23" y="597.52" width="5.28" height="29.22" rx="0.29"/>
<path fill="#625281" d="
  M 342.72 612.63
  A 0.24 0.24 0.0 0 0 342.25 612.72
  L 342.25 626.12
  Q 342.25 626.75 341.62 626.75
  L 337.37 626.75
  Q 336.74 626.75 336.74 626.12
  L 336.74 598.13
  Q 336.74 597.50 337.37 597.50
  L 341.72 597.50
  Q 342.22 597.50 342.42 597.95
  Q 345.60 604.74 347.98 611.87
  A 0.38 0.38 0.0 0 0 348.72 611.75
  L 348.77 598.15
  A 0.64 0.64 0.0 0 1 349.41 597.51
  L 354.47 597.50
  Q 354.70 597.49 354.58 597.69
  C 353.43 599.63 354.28 601.90 354.26 603.45
  Q 354.13 614.89 354.38 626.35
  Q 354.39 626.76 353.98 626.76
  L 348.64 626.75
  Q 348.17 626.74 348.00 626.31
  L 342.72 612.63
  Z"
/>
<path fill="#625985" d="
  M 365.92 602.90
  L 366.06 626.16
  A 0.59 0.59 0.0 0 1 365.47 626.75
  L 361.21 626.75
  A 0.59 0.59 0.0 0 1 360.62 626.16
  L 360.81 602.84
  A 0.59 0.59 0.0 0 0 360.22 602.25
  L 355.68 602.25
  A 0.59 0.59 0.0 0 1 355.09 601.60
  L 355.48 598.03
  A 0.59 0.59 0.0 0 1 356.07 597.50
  L 370.71 597.50
  A 0.59 0.59 0.0 0 1 371.30 598.13
  L 371.05 601.81
  A 0.59 0.59 0.0 0 1 370.45 602.36
  L 366.52 602.31
  A 0.59 0.59 0.0 0 0 365.92 602.90
  Z"
/>
<path fill="#625281" d="
  M 378.57 615.41
  A 0.45 0.45 0.0 0 0 377.71 615.60
  L 377.83 626.15
  Q 377.84 626.62 377.36 626.64
  L 373.19 626.79
  Q 372.50 626.82 372.50 626.12
  L 372.50 598.19
  Q 372.50 597.47 373.22 597.48
  Q 376.37 597.52 384.99 597.56
  Q 389.08 597.59 389.06 601.50
  C 389.05 605.42 390.81 614.79 384.83 614.71
  Q 384.23 614.70 384.49 615.24
  L 389.73 626.00
  A 0.52 0.52 0.0 0 1 389.26 626.75
  L 384.37 626.75
  Q 383.88 626.75 383.67 626.30
  L 378.57 615.41
  Z
  M 383.7620 602.9617
  A 0.42 0.42 0.0 0 0 383.3464 602.5373
  L 378.1667 602.4831
  A 0.42 0.42 0.0 0 0 377.7423 602.8986
  L 377.6780 609.0383
  A 0.42 0.42 0.0 0 0 378.0936 609.4627
  L 383.2733 609.5169
  A 0.42 0.42 0.0 0 0 383.6977 609.1014
  L 383.7620 602.9617
  Z"
/>
<rect fill="#625281" x="-2.76" y="-14.61" transform="translate(394.51,612.14) rotate(-0.1)" width="5.52" height="29.22" rx="0.50"/>
<path fill="#625281" d="
  M 405.75 602.93
  L 405.75 620.97
  Q 405.75 621.69 406.47 621.71
  L 414.68 621.85
  A 0.94 0.93 12.7 0 1 415.52 623.17
  Q 414.88 624.56 415.57 625.94
  Q 415.84 626.48 415.98 625.89
  L 422.71 598.06
  A 0.73 0.72 6.5 0 1 423.42 597.50
  L 428.77 597.50
  Q 429.32 597.50 429.45 598.04
  L 436.25 625.99
  Q 436.43 626.71 435.69 626.72
  L 431.17 626.76
  Q 430.72 626.76 430.63 626.33
  L 429.56 621.20
  Q 429.42 620.50 428.71 620.50
  L 423.39 620.50
  Q 422.78 620.50 422.65 621.09
  L 421.60 625.81
  A 1.13 1.11 -83.5 0 1 420.51 626.69
  L 403.64 626.76
  A 3.13 3.13 0.0 0 1 400.50 623.63
  L 400.50 600.75
  A 3.25 3.25 0.0 0 1 403.75 597.50
  L 414.00 597.50
  Q 414.50 597.50 414.50 598.00
  L 414.50 601.72
  Q 414.50 602.20 414.03 602.20
  L 406.32 602.35
  Q 405.75 602.36 405.75 602.93
  Z
  M 426.39 608.35
  A 0.31 0.31 0.0 0 0 425.79 608.35
  L 424.12 615.13
  A 0.31 0.31 0.0 0 0 424.42 615.51
  L 427.83 615.45
  A 0.31 0.31 0.0 0 0 428.12 615.06
  L 426.39 608.35
  Z"
/>
<path fill="#625281" d="
  M 444.11 626.75
  L 439.91 626.75
  A 0.72 0.72 0.0 0 1 439.19 626.02
  L 439.39 602.98
  A 0.72 0.72 0.0 0 0 438.67 602.25
  L 434.92 602.25
  A 0.72 0.72 0.0 0 1 434.20 601.59
  L 433.93 598.28
  A 0.72 0.72 0.0 0 1 434.64 597.50
  L 449.04 597.50
  A 0.72 0.72 0.0 0 1 449.76 598.22
  L 449.73 601.53
  A 0.72 0.72 0.0 0 1 449.01 602.25
  L 445.20 602.25
  A 0.72 0.72 0.0 0 0 444.48 602.98
  L 444.83 626.02
  A 0.72 0.72 0.0 0 1 444.11 626.75
  Z"
/>
<path fill="#625281" d="
  M 487.80 614.79
  L 480.08 614.35
  A 2.50 2.50 0.0 0 1 477.72 611.84
  L 477.81 599.91
  A 2.30 2.30 0.0 0 1 480.08 597.62
  L 492.11 597.45
  A 0.62 0.61 -87.9 0 1 492.73 598.12
  L 492.44 601.63
  Q 492.39 602.16 491.86 602.18
  L 483.34 602.42
  A 0.49 0.48 -1.8 0 0 482.87 602.91
  L 482.99 608.92
  Q 483.00 609.39 483.46 609.46
  C 486.91 610.03 493.39 608.19 493.32 613.74
  Q 493.25 619.11 493.24 623.74
  A 3.00 2.99 -89.9 0 1 490.25 626.73
  L 478.11 626.76
  A 0.62 0.62 0.0 0 1 477.49 626.10
  L 477.71 622.73
  A 1.04 1.04 0.0 0 1 478.75 621.75
  L 487.52 621.75
  A 0.60 0.60 0.0 0 0 488.12 621.16
  L 488.27 615.30
  Q 488.28 614.82 487.80 614.79
  Z"
/>
<path fill="#614a7c" d="
  M 512.48 626.15
  L 512.58 598.10
  A 0.60 0.60 0.0 0 1 513.18 597.50
  L 517.21 597.50
  A 0.60 0.60 0.0 0 1 517.81 598.10
  L 517.72 621.11
  A 0.60 0.60 0.0 0 0 518.31 621.71
  L 526.89 621.83
  A 0.60 0.60 0.0 0 1 527.48 622.43
  L 527.51 626.15
  A 0.60 0.60 0.0 0 1 526.91 626.75
  L 513.08 626.75
  A 0.60 0.60 0.0 0 1 512.48 626.15
  Z"
/>
<path fill="#614a7c" d="
  M 540.20 621.11
  L 540.44 598.30
  Q 540.44 597.73 541.01 597.74
  L 544.72 597.76
  Q 545.26 597.76 545.27 598.30
  Q 545.43 610.05 545.48 621.74
  Q 545.49 623.88 544.79 625.85
  A 0.97 0.96 -82.6 0 1 543.98 626.48
  Q 540.00 626.86 532.76 626.64
  C 529.50 626.54 529.00 625.25 529.00 622.17
  Q 528.99 610.20 529.00 598.22
  A 0.72 0.72 0.0 0 1 529.72 597.50
  L 533.75 597.50
  Q 534.25 597.50 534.25 598.00
  L 534.25 621.15
  Q 534.25 621.79 534.90 621.78
  L 539.64 621.68
  Q 540.20 621.67 540.20 621.11
  Z"
/>
<path fill="#625281" d="
  M 551.61 602.25
  L 547.37 602.25
  A 0.53 0.53 0.0 0 1 546.84 601.78
  L 546.45 598.25
  A 0.53 0.53 0.0 0 1 546.97 597.66
  L 561.96 597.43
  A 0.53 0.53 0.0 0 1 562.50 597.96
  L 562.50 601.72
  A 0.53 0.53 0.0 0 1 561.97 602.25
  L 558.01 602.25
  A 0.53 0.53 0.0 0 0 557.48 602.78
  L 557.51 626.51
  A 0.53 0.53 0.0 0 1 556.94 627.04
  L 552.39 626.68
  A 0.53 0.53 0.0 0 1 551.91 626.14
  L 552.14 602.79
  A 0.53 0.53 0.0 0 0 551.61 602.25
  Z"
/>
<rect fill="#625281" x="-2.65" y="-14.61" transform="translate(568.13,612.13) rotate(-0.1)" width="5.30" height="29.22" rx="0.30"/>
<path fill="#625281" d="
  M 590.4704 623.3543
  A 3.41 3.41 0.0 0 1 587.0545 626.7584
  L 577.4145 626.7416
  A 3.41 3.41 0.0 0 1 574.0104 623.3256
  L 574.0496 600.9057
  A 3.41 3.41 0.0 0 1 577.4655 597.5016
  L 587.1055 597.5184
  A 3.41 3.41 0.0 0 1 590.5096 600.9344
  L 590.4704 623.3543
  Z
  M 585.2657 603.1152
  A 0.60 0.60 0.0 0 0 584.6668 602.5141
  L 579.9668 602.5059
  A 0.60 0.60 0.0 0 0 579.3657 603.1049
  L 579.3343 621.1448
  A 0.60 0.60 0.0 0 0 579.9332 621.7459
  L 584.6332 621.7541
  A 0.60 0.60 0.0 0 0 585.2343 621.1551
  L 585.2657 603.1152
  Z"
/>
<path fill="#625281" d="
  M 620.36 614.63
  C 616.02 614.05 610.54 616.51 610.50 609.65
  Q 610.47 605.42 610.51 601.21
  Q 610.55 597.50 614.26 597.50
  L 625.00 597.50
  Q 625.50 597.50 625.50 598.00
  L 625.50 601.72
  Q 625.50 602.18 625.03 602.19
  L 616.46 602.39
  A 0.71 0.71 0.0 0 0 615.76 603.10
  L 615.75 608.75
  Q 615.74 609.40 616.38 609.49
  C 619.33 609.95 626.02 608.39 626.17 612.82
  Q 626.36 618.37 626.21 623.89
  A 2.95 2.94 0.8 0 1 623.26 626.75
  L 611.00 626.75
  Q 610.49 626.75 610.49 626.25
  L 610.51 622.40
  A 0.66 0.65 -89.6 0 1 611.16 621.75
  L 620.34 621.75
  A 0.66 0.66 0.0 0 0 621.00 621.09
  L 620.99 615.35
  A 0.73 0.72 -86.4 0 0 620.36 614.63
  Z"
/>
<path fill="#614a7c" d="
  M 210.8802 623.6984
  A 3.06 3.06 0.0 0 1 207.8095 626.7477
  L 197.5896 626.7121
  A 3.06 3.06 0.0 0 1 194.5403 623.6414
  L 194.6198 600.8416
  A 3.06 3.06 0.0 0 1 197.6905 597.7923
  L 207.9104 597.8279
  A 3.06 3.06 0.0 0 1 210.9597 600.8986
  L 210.8802 623.6984
  Z
  M 205.9059 602.1827
  A 0.27 0.27 0.0 0 0 205.6336 601.9151
  L 199.8338 601.9657
  A 0.27 0.27 0.0 0 0 199.5662 602.2380
  L 199.7341 621.4773
  A 0.27 0.27 0.0 0 0 200.0064 621.7449
  L 205.8062 621.6943
  A 0.27 0.27 0.0 0 0 206.0738 621.4220
  L 205.9059 602.1827
  Z"
/>
<path fill="#625281" d="
  M 456.97 621.75
  L 465.78 621.75
  A 0.47 0.47 0.0 0 1 466.25 622.22
  L 466.25 626.28
  A 0.47 0.47 0.0 0 1 465.78 626.75
  L 451.95 626.75
  A 0.47 0.47 0.0 0 1 451.48 626.28
  L 451.49 598.22
  A 0.47 0.47 0.0 0 1 451.96 597.75
  L 465.03 597.75
  A 0.47 0.47 0.0 0 1 465.50 598.22
  L 465.50 601.78
  A 0.47 0.47 0.0 0 1 465.03 602.25
  L 456.97 602.25
  A 0.47 0.47 0.0 0 0 456.50 602.72
  L 456.50 609.28
  A 0.47 0.47 0.0 0 0 456.97 609.75
  L 464.28 609.75
  A 0.47 0.47 0.0 0 1 464.75 610.22
  L 464.75 614.02
  A 0.47 0.47 0.0 0 1 464.28 614.49
  L 456.97 614.51
  A 0.47 0.47 0.0 0 0 456.50 614.98
  L 456.50 621.28
  A 0.47 0.47 0.0 0 0 456.97 621.75
  Z"
/>
<rect fill="#ffffff" x="-3.17" y="-9.89" transform="translate(202.82,611.83) rotate(-0.5)" width="6.34" height="19.78" rx="0.27"/>
<rect fill="#ffffff" x="-2.87" y="-3.53" transform="translate(307.12,605.96) rotate(-0.4)" width="5.74" height="7.06" rx="0.45"/>
<rect fill="#ffffff" x="-3.01" y="-3.49" transform="translate(380.72,606.00) rotate(0.6)" width="6.02" height="6.98" rx="0.42"/>
<rect fill="#ffffff" x="-2.81" y="-9.62" transform="translate(502.92,612.13) rotate(0.2)" width="5.62" height="19.24" rx="0.37"/>
<rect fill="#ffffff" x="-2.95" y="-9.62" transform="translate(582.30,612.13) rotate(0.1)" width="5.90" height="19.24" rx="0.60"/>
<path fill="#ffffff" d="
  M 92.20 608.53
  L 93.77 614.93
  Q 93.91 615.50 93.32 615.50
  L 90.33 615.50
  Q 89.73 615.50 89.89 614.92
  L 91.65 608.52
  Q 91.94 607.45 92.20 608.53
  Z"
/>
<path fill="#ffffff" d="
  M 426.39 608.35
  L 428.12 615.06
  A 0.31 0.31 0.0 0 1 427.83 615.45
  L 424.42 615.51
  A 0.31 0.31 0.0 0 1 424.12 615.13
  L 425.79 608.35
  A 0.31 0.31 0.0 0 1 426.39 608.35
  Z"
/>
</svg>
